<?xml version="1.0" encoding="utf-8"?>
<!-- Generator: Adobe Illustrator 24.0.2, SVG Export Plug-In . SVG Version: 6.00 Build 0)  -->
<svg version="1.1" id="Слой_1" width="100%" height="100%" xmlns="http://www.w3.org/2000/svg" xmlns:xlink="http://www.w3.org/1999/xlink" x="0px" y="0px"
	 viewBox="0 0 287.04 1506.17" style="enable-background:new 0 0 287.04 1506.17;" xml:space="preserve" preserveAspectRatio="none">
<style type="text/css">
	.st0{fill:url(#SVGID_1_);}
	.st1{fill:url(#SVGID_2_);}
	.st2{opacity:0.2;fill:url(#SVGID_3_);}
	.st3{fill:#FFFFFF;}
	.st4{fill:#FFFFFF;stroke:#FFFFFF;stroke-width:0.75;stroke-miterlimit:10;}
	.st5{fill:#FFFFFF;stroke:#FFFFFF;stroke-width:2;stroke-miterlimit:10;}
	.st6{fill:#FFFFFF;stroke:#FFFFFF;stroke-miterlimit:10;}
	.st7{fill:none;stroke:#FFFFFF;stroke-width:6;stroke-linecap:round;stroke-linejoin:round;stroke-miterlimit:10;}
	.st8{font-family:'FiraSans-Black';}
	.st9{font-size:33.9044px;}
	.st10{font-size:19.7776px;}
	.st11{fill:none;}
	.st12{fill:#50AE32;}
	.st13{fill:none;stroke:#FFFFFF;stroke-width:1.5;stroke-linecap:round;stroke-linejoin:round;stroke-miterlimit:10;}
	.st14{fill:#FFFFFF;stroke:#FFFFFF;stroke-width:2;stroke-linecap:round;stroke-linejoin:round;stroke-miterlimit:10;}
	.st15{fill:#F4F2EE;stroke:#FFFFFF;stroke-width:3;stroke-linecap:round;stroke-miterlimit:10;}
	.st16{fill:none;stroke:#FFFFFF;stroke-width:2;stroke-miterlimit:10;}
</style>
<g>
	<linearGradient id="SVGID_1_" gradientUnits="userSpaceOnUse" x1="143.5191" y1="1507.0212" x2="143.5191" y2="-9.094947e-13">
		<stop  offset="0" style="stop-color:#7FB7C9;stop-opacity:0.28"/>
		<stop  offset="1" style="stop-color:#BABBBA;stop-opacity:0.28"/>
	</linearGradient>
	<rect class="st0" width="287.04" height="1507.02"/>
</g>
<linearGradient id="SVGID_2_" gradientUnits="userSpaceOnUse" x1="-135.1632" y1="1136.7266" x2="631.2687" y2="370.2947">
	<stop  offset="0" style="stop-color:#A6C952"/>
	<stop  offset="1" style="stop-color:#73A52D"/>
</linearGradient>
<rect x="235.13" class="st1" width="25.84" height="1507.02"/>
<linearGradient id="SVGID_3_" gradientUnits="userSpaceOnUse" x1="252.1329" y1="752.4738" x2="208.1157" y2="750.3977">
	<stop  offset="0" style="stop-color:#A6C952"/>
	<stop  offset="1" style="stop-color:#73A52D"/>
</linearGradient>
<rect x="261.2" class="st2" width="25.84" height="1507.02"/>
<g>
	<g>
		<path class="st3" d="M171.45,174.72c0-20.95-17.05-38-38-38s-38,17.05-38,38c0,12.96,6.5,24.81,17.2,31.8
			c-1.36,1.24-2.2,3.02-2.2,4.99v10.42c0,3.75,3.04,6.79,6.79,6.79h31.42c3.75,0,6.79-3.04,6.79-6.79v-10.42
			c0-1.74-0.68-3.37-1.81-4.6C164.71,199.99,171.45,187.95,171.45,174.72z M148.8,205.06c-0.76,0.38-1.19,1.19-1.08,2.03
			c0.1,0.84,0.72,1.52,1.55,1.7c1.26,0.28,2.18,1.43,2.18,2.72v10.42c0,1.54-1.25,2.79-2.79,2.79h-31.42
			c-1.54,0-2.79-1.25-2.79-2.79v-10.42c0-1.48,1.17-2.7,2.65-2.77c0.91-0.04,1.67-0.69,1.86-1.57c0.2-0.89-0.23-1.79-1.04-2.2
			c-11.39-5.87-18.47-17.46-18.47-30.25c0-18.75,15.25-34,34-34s34,15.25,34,34C167.45,187.6,160.3,199.22,148.8,205.06z"/>
		<g>
			<line class="st3" x1="132.95" y1="226.72" x2="132.95" y2="204.72"/>
			<path class="st4" d="M134.45,204.72v22c0,0.83-0.67,1.5-1.5,1.5s-1.5-0.67-1.5-1.5v-22c0-0.25,0.06-0.48,0.18-0.69
				c0.08-0.18,0.2-0.33,0.36-0.45c0.09-0.09,0.2-0.16,0.32-0.21c0.02-0.02,0.04-0.02,0.06-0.03c0.12-0.06,0.26-0.09,0.4-0.1
				c0.06-0.02,0.12-0.02,0.18-0.02c0.31,0,0.59,0.09,0.83,0.25c0.11,0.07,0.2,0.15,0.28,0.25
				C134.3,203.98,134.45,204.33,134.45,204.72z"/>
		</g>
		<path class="st3" d="M87.44,170.27h-6.46c-1.12,0-2.02-0.9-2.02-2.02c0-1.12,0.9-2.02,2.02-2.02h6.46c1.12,0,2.02,0.9,2.02,2.02
			C89.46,169.36,88.55,170.27,87.44,170.27z"/>
		<path class="st3" d="M133.47,132.01c-1.12,0-2.02-0.9-2.02-2.02v-6.22c0-1.12,0.9-2.02,2.02-2.02s2.02,0.9,2.02,2.02v6.22
			C135.49,131.11,134.58,132.01,133.47,132.01z"/>
		<path class="st3" d="M164.59,143.13c-0.52,0-1.03-0.2-1.43-0.59c-0.79-0.79-0.79-2.07,0-2.86l4.4-4.4c0.79-0.79,2.07-0.79,2.86,0
			c0.79,0.79,0.79,2.07,0,2.86l-4.4,4.4C165.63,142.93,165.11,143.13,164.59,143.13z"/>
		<path class="st3" d="M101.56,143.13c-0.52,0-1.03-0.2-1.43-0.59l-4.4-4.4c-0.79-0.79-0.79-2.07,0-2.86c0.79-0.79,2.07-0.79,2.86,0
			l4.4,4.4c0.79,0.79,0.79,2.07,0,2.86C102.59,142.93,102.08,143.13,101.56,143.13z"/>
		<path class="st3" d="M171.39,201.22l5.45,3.47c0.94,0.6,2.19,0.32,2.79-0.62s0.32-2.19-0.62-2.79l-5.45-3.47
			c-0.94-0.6-2.19-0.32-2.79,0.62C170.17,199.37,170.45,200.62,171.39,201.22z"/>
		<g>
			<path class="st5" d="M133.77,151.8c-0.48-0.32-1.12-0.32-1.6,0c-3.35,2.24-6.3,4.62-8.76,7.08c-6.27,6.27-9.45,12.99-9.46,19.99
				c0,9.76,6.3,19.11,18.21,27.06c0.02,0.02,0.04,0.03,0.06,0.04c0.06,0.04,0.13,0.07,0.21,0.1c0.08,0.04,0.17,0.06,0.27,0.08
				c0.09,0.02,0.18,0.03,0.28,0.03h0.06c0.07,0,0.13-0.01,0.21-0.02c0.22-0.04,0.42-0.13,0.58-0.26c3.32-2.23,6.25-4.59,8.7-7.05
				c6.27-6.28,9.45-12.99,9.44-19.99C151.96,169.13,145.68,159.77,133.77,151.8z M140.48,196.82c-1.77,1.78-3.83,3.52-6.12,5.2
				c-0.45,0.33-0.91,0.66-1.38,0.98c-0.51-0.36-1.02-0.71-1.51-1.08c-9.58-7.01-14.63-14.94-14.63-23.06
				c0.01-8.52,5.61-16.88,16.13-24.12c10.55,7.28,16.11,15.61,16.1,24.12v0.03C149.07,185.09,146.18,191.12,140.48,196.82z"/>
			<g>
				<path class="st6" d="M134.4,204.7c0.01,0.41-0.15,0.79-0.42,1.06c-0.05,0.05-0.1,0.1-0.16,0.14c-0.16,0.12-0.37,0.22-0.58,0.26
					c-0.07,0.01-0.13,0.02-0.21,0.02h-0.06c-0.09,0-0.18-0.01-0.28-0.03c-0.09-0.02-0.18-0.04-0.27-0.08
					c-0.07-0.03-0.14-0.06-0.21-0.1c-0.02-0.01-0.04-0.02-0.06-0.04c-0.38-0.26-0.63-0.68-0.64-1.16l-0.06-2.84l-0.16-8.33
					l-0.08-3.91l-0.42-20.55c-0.01-0.8,0.62-1.46,1.42-1.48c0.79-0.01,1.46,0.62,1.47,1.42l0.16,7.83l0.06,3.13l0.45,21.99
					L134.4,204.7z"/>
			</g>
			<g>
				<path class="st6" d="M142.86,175.88c-0.12,0.11-0.27,0.22-0.42,0.29l-8.54,3.86l-0.34,0.15c-0.73,0.33-1.58,0.01-1.91-0.72
					s-0.01-1.58,0.72-1.91l1.47-0.66l7.42-3.35c0.72-0.33,1.58-0.01,1.91,0.72C143.42,174.83,143.28,175.46,142.86,175.88z"/>
			</g>
			<g>
				<path class="st6" d="M133.8,193.87c-0.02,0.02-0.04,0.05-0.07,0.07c-0.53,0.53-1.39,0.56-1.97,0.06l-0.46-0.41l-9.83-8.63
					c-0.59-0.53-0.66-1.44-0.12-2.04c0.5-0.62,1.44-0.66,2.03-0.13l7.84,6.89l2.45,2.15C134.26,192.36,134.32,193.27,133.8,193.87z"
					/>
			</g>
		</g>
		<path class="st3" d="M95.02,201.22l-5.45,3.47c-0.94,0.6-2.19,0.32-2.79-0.62s-0.32-2.19,0.62-2.79l5.45-3.47
			c0.94-0.6,2.19-0.32,2.79,0.62S95.96,200.62,95.02,201.22z"/>
		<path class="st3" d="M183.93,170.26h-6.22c-1.12,0-2.02-0.9-2.02-2.02c0-1.12,0.9-2.02,2.02-2.02h6.22c1.12,0,2.02,0.9,2.02,2.02
			C185.95,169.35,185.05,170.26,183.93,170.26z"/>
	</g>
	<g>
		<path class="st3" d="M107.83,771.41l-8.42-39.53c-0.58-2.69-2.95-4.62-5.71-4.62H59.36c-2.74,0-5.11,1.91-5.7,4.58l-8.75,39.85
			c-0.69,3.15,1.3,6.26,4.45,6.95c0.42,0.09,0.84,0.14,1.26,0.14c2.68,0,5.1-1.86,5.69-4.58l7.26-33.1v91.14
			c0,3.22,2.61,5.83,5.83,5.83s5.83-2.61,5.83-5.83v-47.31h3.56v47.31c0,3.22,2.61,5.83,5.83,5.83c3.22,0,5.83-2.61,5.83-5.83
			v-86.38l5.96,27.97c0.67,3.15,3.78,5.15,6.92,4.49C106.5,777.66,108.5,774.56,107.83,771.41z"/>
		<path class="st3" d="M76.53,714.95c7.87,0,14.26-6.38,14.26-14.26c0-7.87-6.38-14.26-14.26-14.26c-7.88,0-14.26,6.38-14.26,14.26
			C62.27,708.57,68.66,714.95,76.53,714.95z"/>
	</g>
	<g>
		<path class="st3" d="M200.78,771.41l-8.42-39.53c-0.58-2.69-2.95-4.62-5.71-4.62H152.3c-2.74,0-5.11,1.91-5.7,4.58l-8.75,39.85
			c-0.69,3.15,1.3,6.26,4.45,6.95c0.42,0.09,0.84,0.14,1.26,0.14c2.68,0,5.1-1.86,5.69-4.58l7.26-33.1v91.14
			c0,3.22,2.61,5.83,5.83,5.83c3.22,0,5.83-2.61,5.83-5.83v-47.31h3.56v47.31c0,3.22,2.61,5.83,5.83,5.83
			c3.22,0,5.83-2.61,5.83-5.83v-86.38l5.96,27.97c0.67,3.15,3.78,5.15,6.92,4.49C199.44,777.66,201.45,774.56,200.78,771.41z"/>
		<path class="st3" d="M169.48,714.95c7.87,0,14.26-6.38,14.26-14.26c0-7.87-6.38-14.26-14.26-14.26c-7.88,0-14.26,6.38-14.26,14.26
			C155.22,708.57,161.6,714.95,169.48,714.95z"/>
	</g>
	<path class="st7" d="M168.7,599.23c-1.73,0-3.37,0.3-4.97,0.72c-1.05-12.35-11.29-22.08-23.91-22.08c-7.06,0-13.34,3.08-17.76,7.92
		c-4.97-5.32-12.03-8.67-19.89-8.67c-12.95,0-23.77,9.05-26.53,21.16c-2.79-1.31-5.88-2.09-9.17-2.09c-11.99,0-21.7,9.72-21.7,21.7
		c0,11.19,8.51,20.3,19.39,21.47c0,0.08-0.02,0.15-0.02,0.23c0,13.28,10.77,24.05,24.05,24.05c5.6,0,10.67-2,14.74-5.22
		c4.4,6.89,12.06,11.49,20.84,11.49c8.49,0,15.97-4.28,20.43-10.79c1.33,0.27,2.7,0.45,4.12,0.45c11.26,0,20.38-9.13,20.38-20.38
		c0-0.28-0.07-0.54-0.08-0.83c0.03,0,0.05,0.01,0.08,0.01c10.81,0,19.57-8.76,19.57-19.57C188.27,607.99,179.51,599.23,168.7,599.23
		z"/>
	<text transform="matrix(1 0 0 1 103.8455 633.0865)"><tspan x="0" y="0" class="st3 st8 st9">О</tspan><tspan x="23.39" y="5.65" class="st3 st8 st10">2</tspan></text>
	<g>
		<g>
			<g>
				<path class="st3" d="M194.57,988.68H50.3c-0.78,0-1.41-0.63-1.41-1.41v-84.48c0-0.78,0.63-1.41,1.41-1.41h144.27
					c0.78,0,1.41,0.63,1.41,1.41v84.48C195.99,988.04,195.35,988.68,194.57,988.68z M51.71,985.85h141.45v-81.66H51.71V985.85z"/>
			</g>
			<g>
				<path class="st3" d="M206.93,904.19H37.94c-0.78,0-1.41-0.63-1.41-1.41v-12.16c0-0.78,0.63-1.41,1.41-1.41h168.99
					c0.78,0,1.41,0.63,1.41,1.41v12.16C208.34,903.56,207.71,904.19,206.93,904.19z M39.36,901.37h166.16v-9.34H39.36V901.37z"/>
			</g>
			<g>
				<path class="st3" d="M154.47,1032.26c-0.36,0-0.72-0.14-1-0.41l-23.07-23.05h-15.25l-23.07,23.05c-0.55,0.55-1.44,0.55-1.99,0
					l-4.52-4.5c-0.27-0.27-0.42-0.62-0.42-1c0-0.38,0.15-0.74,0.41-1l22.49-22.5v-15.59c0-0.78,0.63-1.41,1.41-1.41h25.91
					c0.78,0,1.41,0.63,1.41,1.41v14.92l23.17,23.17c0.27,0.27,0.42,0.63,0.42,1c0,0.38-0.15,0.73-0.42,1l-4.5,4.5
					C155.19,1032.12,154.83,1032.26,154.47,1032.26z M88.56,1026.35l2.52,2.5l22.49-22.47c0.26-0.27,0.62-0.41,1-0.41h16.42
					c0.38,0,0.73,0.15,1,0.41l22.49,22.47l2.5-2.5l-22.58-22.59c-0.27-0.27-0.41-0.62-0.41-1v-14.09h-23.09v14.77
					c0,0.38-0.15,0.73-0.41,1L88.56,1026.35z"/>
			</g>
			<g>
				<path class="st3" d="M160.66,975.7h-10.15c-0.78,0-1.41-0.63-1.41-1.41v-51.44c0-0.78,0.63-1.41,1.41-1.41h10.15
					c0.78,0,1.41,0.63,1.41,1.41v51.44C162.07,975.07,161.44,975.7,160.66,975.7z M151.92,972.87h7.33v-48.62h-7.33V972.87z"/>
			</g>
			<g>
				<path class="st3" d="M144.08,975.7h-10.13c-0.78,0-1.41-0.63-1.41-1.41v-45.06c0-0.78,0.63-1.41,1.41-1.41h10.13
					c0.78,0,1.41,0.63,1.41,1.41v45.06C145.5,975.07,144.86,975.7,144.08,975.7z M135.36,972.87h7.31v-42.23h-7.31V972.87z"/>
			</g>
			<g>
				<path class="st3" d="M127.5,975.7h-10.13c-0.78,0-1.41-0.63-1.41-1.41v-38.87c0-0.78,0.63-1.41,1.41-1.41h10.13
					c0.78,0,1.41,0.63,1.41,1.41v38.87C128.91,975.07,128.28,975.7,127.5,975.7z M118.78,972.87h7.31v-36.04h-7.31V972.87z"/>
			</g>
			<g>
				<path class="st3" d="M110.92,975.7h-10.13c-0.78,0-1.41-0.63-1.41-1.41v-30.23c0-0.78,0.63-1.41,1.41-1.41h10.13
					c0.78,0,1.41,0.63,1.41,1.41v30.23C112.34,975.07,111.71,975.7,110.92,975.7z M102.21,972.87h7.3v-27.4h-7.3V972.87z"/>
			</g>
			<g>
				<path class="st3" d="M94.35,975.7H84.22c-0.78,0-1.41-0.63-1.41-1.41v-21.22c0-0.78,0.63-1.41,1.41-1.41h10.13
					c0.78,0,1.41,0.63,1.41,1.41v21.22C95.76,975.07,95.13,975.7,94.35,975.7z M85.63,972.87h7.31v-18.39h-7.31V972.87z"/>
			</g>
			<g>
				<path class="st3" d="M167.54,981.99H77.31c-0.78,0-1.41-0.63-1.41-1.41c0-0.78,0.63-1.41,1.41-1.41h90.23
					c0.78,0,1.41,0.63,1.41,1.41C168.96,981.35,168.33,981.99,167.54,981.99z"/>
			</g>
			<g>
				<path class="st3" d="M84.24,945.51c-0.58,0-1.12-0.36-1.33-0.94c-0.26-0.73,0.11-1.54,0.85-1.8
					c0.38-0.14,38.12-13.88,54.67-33.15c0.51-0.59,1.4-0.66,1.99-0.15c0.59,0.51,0.66,1.4,0.15,1.99
					c-17.04,19.83-54.28,33.4-55.86,33.96C84.56,945.48,84.4,945.51,84.24,945.51z"/>
			</g>
			<g>
				<path class="st3" d="M139.3,920.59c-0.78,0-1.41-0.63-1.41-1.41v-7l-6.56,0.03c0,0,0,0-0.01,0c-0.78,0-1.41-0.63-1.41-1.41
					c0-0.78,0.63-1.41,1.4-1.42l7.98-0.04c0,0,0,0,0,0c0.38,0,0.73,0.15,1,0.41c0.27,0.26,0.42,0.63,0.42,1v8.42
					C140.71,919.96,140.08,920.59,139.3,920.59z"/>
			</g>
			<g>
				<path class="st3" d="M127.92,892.03h-10.99c-0.78,0-1.41-0.63-1.41-1.41v-8.6c0-3.81,3.1-6.91,6.91-6.91
					c3.81,0,6.91,3.1,6.91,6.91v8.6C129.33,891.4,128.7,892.03,127.92,892.03z M118.35,889.2h8.16v-7.18c0-2.25-1.83-4.08-4.08-4.08
					c-2.25,0-4.08,1.83-4.08,4.08V889.2z"/>
			</g>
		</g>
	</g>
	<path class="st3" d="M159.84,380.94"/>
	<path class="st3" d="M141.73,478.8h-25.6c-10.46,0-20.18-4.71-26.65-12.94c-6.47-8.22-8.78-18.77-6.33-28.94l13.61-56.41
		c0.24-0.99,1.23-1.6,2.22-1.36c0.99,0.24,1.59,1.23,1.36,2.22l-13.61,56.41c-2.19,9.07-0.13,18.48,5.64,25.81
		c5.77,7.33,14.43,11.53,23.76,11.53h25.6c9.34,0,18.01-4.21,23.78-11.55c5.77-7.34,7.82-16.76,5.62-25.83l-13.68-56.37
		c-0.24-0.99,0.37-1.98,1.35-2.22c0.98-0.24,1.98,0.37,2.22,1.35l13.68,56.37c2.47,10.18,0.18,20.74-6.3,28.97
		C161.92,474.08,152.2,478.8,141.73,478.8z"/>
	<path class="st3" d="M145.61,387.07h-33.64c-13.79,0-25.01-11.22-25.01-25.01v-0.98c0-1.02,0.82-1.84,1.84-1.84h79.98
		c1.02,0,1.84,0.82,1.84,1.84v0.98C170.62,375.85,159.4,387.07,145.61,387.07z M90.66,362.93c0.45,11.36,9.84,20.47,21.31,20.47
		h33.64c11.47,0,20.86-9.1,21.31-20.47H90.66z"/>
	<g>
		<path class="st3" d="M145.26,341.71c-4.52,0-9.43-0.52-14.58-1.54c-0.51-0.1-0.92-0.5-1.02-1.02
			c-3.64-18.23-0.86-32.58,8.06-41.47c6.37-6.37,15.41-9.6,26.87-9.6c4.52,0,9.43,0.52,14.58,1.54c0.51,0.1,0.92,0.5,1.02,1.02
			c3.64,18.23,0.86,32.57-8.06,41.47C165.76,338.48,156.72,341.71,145.26,341.71z M132.04,337.79c4.67,0.88,9.12,1.33,13.23,1.33
			c10.75,0,19.17-2.97,25.04-8.84c8.14-8.12,10.73-21.35,7.52-38.28c-4.67-0.88-9.12-1.33-13.23-1.33
			c-10.75,0-19.17,2.98-25.04,8.85C131.41,307.63,128.82,320.85,132.04,337.79z"/>
	</g>
	<g>
		<path class="st3" d="M117.59,342.04C117.59,342.04,117.59,342.04,117.59,342.04c-7.98,0-14.27-2.26-18.71-6.71
			c-6.2-6.18-8.15-16.13-5.64-28.76c0.1-0.52,0.5-0.92,1.02-1.02c3.55-0.71,6.93-1.06,10.06-1.06c7.96,0,14.26,2.25,18.72,6.69
			c6.2,6.2,8.15,16.16,5.63,28.78c-0.1,0.51-0.5,0.92-1.02,1.02C124.1,341.68,120.72,342.04,117.59,342.04z M95.62,307.93
			c-2.08,11.33-0.32,20.17,5.1,25.57c3.93,3.95,9.61,5.95,16.87,5.95c0,0,0,0,0,0c2.7,0,5.63-0.28,8.7-0.85
			c2.09-11.33,0.34-20.16-5.08-25.59C115.78,307.6,106.92,305.84,95.62,307.93z"/>
	</g>
	<g>
		<path class="st3" d="M130.93,340.19c-0.32,0-0.64-0.12-0.9-0.36c-0.52-0.5-0.54-1.32-0.04-1.83l32.16-33.56
			c0.5-0.52,1.32-0.53,1.83-0.04c0.52,0.5,0.54,1.32,0.04,1.83l-32.16,33.56C131.61,340.06,131.27,340.19,130.93,340.19z"/>
	</g>
	<g>
		<path class="st3" d="M129.21,348.21c-0.83,0-1.5-0.54-1.5-1.2l0-64.48c0-0.67,0.67-1.2,1.5-1.2c0.83,0,1.5,0.54,1.5,1.2l0,64.48
			C130.71,347.67,130.04,348.21,129.21,348.21z"/>
	</g>
	<g>
		<path class="st3" d="M150.84,319.42c-0.67,0-1.23-0.51-1.29-1.19l-1.49-18.37c-0.06-0.71,0.47-1.34,1.19-1.4
			c0.69-0.09,1.34,0.47,1.4,1.19l1.49,18.37c0.06,0.71-0.47,1.34-1.19,1.4C150.91,319.42,150.87,319.42,150.84,319.42z"/>
	</g>
	<g>
		<path class="st3" d="M138.53,332.27c-0.63,0-1.18-0.46-1.28-1.09c-0.11-0.71,0.37-1.37,1.08-1.48l19.74-3.13
			c0.69-0.12,1.37,0.37,1.48,1.08c0.11,0.71-0.37,1.37-1.08,1.48l-19.74,3.13C138.67,332.26,138.6,332.27,138.53,332.27z"/>
	</g>
	<g>
		<path class="st3" d="M127.4,341c-0.34,0-0.68-0.13-0.93-0.4l-22.19-23.12c-0.5-0.52-0.48-1.34,0.04-1.83
			c0.52-0.49,1.34-0.48,1.83,0.04l22.19,23.12c0.5,0.52,0.48,1.34-0.04,1.83C128.04,340.88,127.72,341,127.4,341z"/>
	</g>
	<g>
		<path class="st3" d="M102.76,327.65c-0.52,0-1.02-0.32-1.21-0.84c-0.25-0.67,0.09-1.42,0.76-1.67l8.19-3.1
			c0.67-0.26,1.42,0.08,1.67,0.76c0.25,0.67-0.09,1.42-0.76,1.67l-8.19,3.1C103.07,327.63,102.91,327.65,102.76,327.65z"/>
	</g>
	<g>
		<path class="st3" d="M120.05,333.33c-0.03,0-0.06,0-0.09,0c-0.71-0.05-1.26-0.66-1.21-1.38l0.79-12.28
			c0.05-0.71,0.66-1.28,1.38-1.21c0.71,0.05,1.26,0.66,1.21,1.38l-0.79,12.28C121.3,332.8,120.73,333.33,120.05,333.33z"/>
	</g>
	<g>
		<path class="st3" d="M175.37,273.68c-3.27,0-5.93-2.66-5.93-5.93c0-3.27,2.66-5.93,5.93-5.93c3.27,0,5.93,2.66,5.93,5.93
			C181.3,271.02,178.64,273.68,175.37,273.68z M175.37,264.42c-1.84,0-3.33,1.5-3.33,3.33c0,1.84,1.5,3.33,3.33,3.33
			c1.84,0,3.34-1.5,3.34-3.33C178.71,265.91,177.21,264.42,175.37,264.42z"/>
	</g>
	<g>
		<path class="st3" d="M122.02,285.93L122.02,285.93c-5.85,0-10.48-1.66-13.77-4.94c-4.57-4.57-6.01-11.87-4.17-21.11
			c0.1-0.51,0.5-0.92,1.02-1.02c9.23-1.83,16.55-0.4,21.12,4.15c4.56,4.57,6,11.87,4.16,21.13c-0.1,0.51-0.5,0.92-1.02,1.02
			C126.77,285.67,124.3,285.93,122.02,285.93z M106.46,261.24c-1.41,7.94-0.17,14.12,3.63,17.92c2.78,2.78,6.79,4.19,11.93,4.19l0,0
			c1.86,0,3.87-0.19,5.98-0.56c1.42-7.95,0.18-14.14-3.61-17.93C120.6,261.08,114.39,259.83,106.46,261.24z"/>
	</g>
	<g>
		<path class="st3" d="M129.1,285.18c-0.34,0-0.68-0.13-0.94-0.4l-11.22-11.71c-0.49-0.52-0.48-1.34,0.04-1.83
			c0.52-0.49,1.33-0.48,1.83,0.04l11.22,11.71c0.49,0.52,0.48,1.34-0.04,1.83C129.75,285.06,129.43,285.18,129.1,285.18z"/>
	</g>
	<path class="st3" d="M95.84,361.61c-0.02,0-0.05,0-0.07,0c-0.68-0.04-1.19-0.62-1.15-1.29c0.4-7.13,6.32-12.72,13.47-12.72
		c7.15,0,13.06,5.58,13.47,12.71c0.04,0.68-0.48,1.26-1.15,1.29c-0.68,0.04-1.26-0.48-1.29-1.15c-0.33-5.83-5.17-10.4-11.02-10.4
		c-5.85,0-10.69,4.57-11.02,10.4C97.03,361.1,96.49,361.61,95.84,361.61z"/>
	<path class="st3" d="M100.84,361.7c-0.01,0-0.02,0-0.04,0c-0.34-0.02-0.6-0.31-0.58-0.65c0.24-4.16,3.68-7.41,7.85-7.41
		c4.17,0,7.62,3.26,7.85,7.41c0.02,0.34-0.24,0.63-0.58,0.65c-0.35,0.02-0.63-0.24-0.65-0.58c-0.2-3.51-3.11-6.26-6.63-6.26
		c-3.52,0-6.43,2.75-6.63,6.26C101.44,361.45,101.17,361.7,100.84,361.7z"/>
	<path class="st3" d="M121.69,359.86c-0.01,0-0.02,0-0.04,0c-0.34-0.02-0.6-0.31-0.58-0.65c0.24-4.16,3.68-7.41,7.85-7.41
		c4.17,0,7.62,3.26,7.85,7.41c0.02,0.34-0.24,0.63-0.58,0.65c-0.34,0.03-0.63-0.24-0.65-0.58c-0.2-3.51-3.11-6.26-6.63-6.26
		c-3.52,0-6.43,2.75-6.63,6.26C122.28,359.61,122.01,359.86,121.69,359.86z"/>
	<path class="st3" d="M143.15,362.93c-0.01,0-0.02,0-0.04,0c-0.34-0.02-0.6-0.31-0.58-0.65c0.24-4.16,3.68-7.41,7.85-7.41
		s7.62,3.26,7.85,7.41c0.02,0.34-0.24,0.63-0.58,0.65c-0.34,0.01-0.63-0.24-0.65-0.58c-0.2-3.51-3.11-6.26-6.63-6.26
		c-3.52,0-6.43,2.75-6.63,6.26C143.74,362.67,143.47,362.93,143.15,362.93z"/>
	<path class="st3" d="M141.19,361.09c-0.68,0-1.23-0.55-1.23-1.23c0-6.08-4.95-11.04-11.04-11.04c-3.8,0-7.29,1.92-9.33,5.13
		c-0.36,0.57-1.12,0.74-1.69,0.38c-0.57-0.36-0.74-1.12-0.38-1.69c2.49-3.93,6.75-6.27,11.4-6.27c7.44,0,13.49,6.05,13.49,13.49
		C142.41,360.54,141.87,361.09,141.19,361.09z"/>
	<path class="st3" d="M162.4,362.31c-0.57,0-1.08-0.4-1.2-0.98c-1.04-5.11-5.59-8.83-10.82-8.83c-3.17,0-6.18,1.36-8.28,3.74
		c-0.45,0.51-1.22,0.56-1.73,0.11c-0.51-0.45-0.56-1.22-0.11-1.73c2.56-2.9,6.25-4.57,10.12-4.57c6.39,0,11.95,4.54,13.22,10.79
		c0.13,0.66-0.29,1.31-0.96,1.45C162.56,362.3,162.48,362.31,162.4,362.31z"/>
	<g>
		<path class="st6" d="M159.87,435.58c-0.02,0-0.03,0-0.05,0c-0.72-0.03-1.29-0.63-1.26-1.35c0.01-0.35,0.02-0.71,0.02-1.06
			c0-15.87-12.91-28.77-28.77-28.77c-3.62,0-7.14,0.66-10.48,1.97c-0.67,0.26-1.43-0.07-1.69-0.74c-0.26-0.67,0.07-1.43,0.74-1.69
			c3.64-1.42,7.49-2.15,11.43-2.15c17.31,0,31.39,14.08,31.39,31.39c0,0.39-0.01,0.77-0.02,1.15
			C161.15,435.03,160.57,435.58,159.87,435.58z"/>
		<path class="st6" d="M129.81,464.56c-5.89,0-11.63-1.64-16.6-4.75c-0.61-0.38-0.8-1.19-0.42-1.8c0.38-0.61,1.19-0.8,1.8-0.42
			c4.56,2.85,9.82,4.35,15.22,4.35c13.19,0,24.66-8.92,27.89-21.68c0.18-0.7,0.89-1.12,1.59-0.95c0.7,0.18,1.12,0.89,0.95,1.59
			C156.7,454.83,144.19,464.56,129.81,464.56z"/>
		<path class="st6" d="M109.49,456.66c-0.32,0-0.63-0.11-0.88-0.34c-6.48-5.93-10.19-14.37-10.19-23.15
			c0-10.09,4.9-19.63,13.11-25.52c0.59-0.42,1.4-0.29,1.83,0.3c0.42,0.59,0.29,1.4-0.3,1.83c-7.53,5.4-12.02,14.15-12.02,23.4
			c0,8.05,3.41,15.78,9.34,21.22c0.53,0.49,0.57,1.32,0.08,1.85C110.2,456.52,109.84,456.66,109.49,456.66z"/>
		<path class="st6" d="M109.86,447.7c-0.72,0.01-1.3,0.6-1.29,1.32l0.06,5.36l-5.35-0.37c-0.72-0.05-1.34,0.49-1.4,1.21
			c-0.05,0.72,0.49,1.35,1.21,1.4l6.52,0.45c0.11,0.03,0.22,0.05,0.34,0.05c0.34,0,0.65-0.14,0.88-0.36c0,0,0.01-0.01,0.01-0.01
			c0,0,0.01-0.01,0.02-0.01c0.23-0.22,0.38-0.52,0.41-0.86c0.01-0.12,0-0.23-0.03-0.34l-0.07-6.54
			C111.18,448.27,110.58,447.69,109.86,447.7z"/>
		<path class="st6" d="M152.52,443.81c0.42,0.59,1.24,0.73,1.82,0.31l4.37-3.11l2.75,4.6c0.37,0.62,1.17,0.82,1.79,0.45
			c0.62-0.37,0.82-1.17,0.45-1.79l-3.35-5.61c-0.04-0.11-0.09-0.21-0.16-0.31c-0.2-0.28-0.49-0.46-0.8-0.52c-0.01,0-0.01,0-0.02,0
			c-0.01,0-0.01,0-0.02-0.01c-0.31-0.07-0.64-0.02-0.94,0.16c-0.1,0.06-0.19,0.14-0.27,0.22l-5.33,3.79
			C152.24,442.41,152.1,443.22,152.52,443.81z"/>
		<path class="st6" d="M124.19,409.26c0.33-0.64,0.07-1.43-0.57-1.76l-4.78-2.42l2.8-4.57c0.38-0.62,0.18-1.42-0.43-1.8
			c-0.62-0.38-1.42-0.18-1.8,0.43l-3.41,5.58c-0.08,0.08-0.15,0.18-0.2,0.28c-0.15,0.31-0.18,0.64-0.09,0.95
			c0,0.01,0.01,0.01,0.01,0.02c0,0.01,0,0.01,0,0.02c0.09,0.3,0.28,0.58,0.58,0.76c0.1,0.06,0.21,0.1,0.32,0.14l5.83,2.96
			C123.07,410.17,123.86,409.91,124.19,409.26z"/>
	</g>
	<path class="st3" d="M131.62,444.03c1.03-0.23,1.86-0.71,2.52-1.46c0.65-0.77,0.97-1.65,0.97-2.68c0-0.91-0.28-1.68-0.8-2.34
		c-0.56-0.69-1.43-1.18-2.68-1.54V444.03z M128.65,422.25c-0.79,0.28-1.43,0.77-1.9,1.43c-0.46,0.65-0.68,1.37-0.68,2.17
		c0,0.71,0.2,1.37,0.62,2c0.43,0.63,1.08,1.11,1.96,1.51V422.25z M128.65,443.69v-8.55c-2.65-0.74-4.62-1.91-5.84-3.45
		c-1.26-1.54-1.86-3.42-1.86-5.62c0-2.22,0.71-4.1,2.11-5.61c1.4-1.54,3.25-2.4,5.58-2.63v-2.02h2.96v2.02c2.2,0.26,3.91,1,5.19,2.2
		c1.28,1.23,2.14,2.88,2.48,4.9l-5.18,0.68c-0.34-1.6-1.15-2.71-2.49-3.28v7.98c3.29,0.88,5.53,2.02,6.73,3.45
		c1.2,1.39,1.77,3.19,1.77,5.42c0,2.45-0.73,4.53-2.25,6.21c-1.48,1.68-3.57,2.74-6.25,3.16v3.8h-2.96v-3.76
		c-2.33-0.29-4.24-1.15-5.73-2.6c-1.45-1.48-2.39-3.53-2.82-6.18l5.33-0.63c0.2,1.08,0.63,2.03,1.23,2.8
		C127.26,442.78,127.92,443.35,128.65,443.69z"/>
	<path class="st3" d="M125.46,538.32c-1.79,0-3.59-0.22-5.37-0.66l-38.47-9.62c-2.35-0.59-4.85-0.62-7.22-0.1l-22.74,10.2
		l-9.99-2.92l31.36-13.42c3.32-0.74,6.81-0.69,10.11,0.13l38.47,9.62c4.03,1,8.22,0.4,11.81-1.72l59.65-35.25
		c-3.29-3.81-8.78-5.24-13.62-3.23l-24.74,10.31l-2.42-5.8l24.74-10.31c8.8-3.67,19.02,0.14,23.28,8.66l1.31,2.62l-65.01,38.42
		C133.18,537.28,129.35,538.32,125.46,538.32z"/>
	<path class="st3" d="M145.64,511.34h-39.29v-6.29h39.29c2.6,0,4.71-2.11,4.71-4.71c0-2.6-2.11-4.71-4.71-4.71l-24.48-0.13
		l-21.86-6.56c-5.74-1.72-11.87-1.92-17.71-0.57l-31.12,7.18l-1.42-6.13l31.12-7.18c6.91-1.59,14.14-1.36,20.93,0.68l21.41,6.42
		h23.11c6.07,0,11,4.94,11,11C156.64,506.4,151.71,511.34,145.64,511.34z"/>
	<path class="st4" d="M138.52,1243.92H99.71c-18.47,0-34.23-13.8-36.67-32.1l-4.41-33.08c-0.41-3.12,0.53-6.26,2.61-8.63
		c2.07-2.37,5.06-3.72,8.21-3.72h98.61c3.1,0,6.06,1.32,8.13,3.63c2.07,2.31,3.05,5.4,2.71,8.48l-3.61,32.51
		C173.2,1229.78,157.39,1243.92,138.52,1243.92z M69.44,1168.08c-2.66,0-5.19,1.15-6.94,3.15c-1.75,2-2.55,4.66-2.2,7.29l4.41,33.08
		c2.33,17.47,17.37,30.64,35,30.64h38.81c18.02,0,33.1-13.5,35.09-31.41l3.61-32.51c0.29-2.6-0.55-5.22-2.29-7.17
		c-1.75-1.95-4.25-3.07-6.87-3.07H69.44z"/>
	<path class="st11" d="M120.06,1127.4c0.75-0.59,1.45-1.18,2.1-1.77C121.4,1126.04,120.67,1126.63,120.06,1127.4z"/>
	<path class="st11" d="M118.55,1130.56c-0.21,0.83-0.28,1.64-0.23,2.41c1.42,1.19,2.43,2.65,2.96,4.17c0.1-0.04,0.2-0.09,0.31-0.13
		c1.13-0.35,2.23-0.42,3.26-0.26c0.35-0.22,0.68-0.49,0.98-0.79c-0.93-1.92-1.08-4.43-0.18-6.88c0.36-0.98,0.87-1.86,1.45-2.62
		c-0.44-0.54-0.98-0.95-1.6-1.18c-0.14-0.05-0.29-0.06-0.43-0.1C123.64,1126.64,121.42,1128.67,118.55,1130.56z"/>
	<path class="st11" d="M136.92,1137.27c-0.16-0.48-0.27-0.96-0.36-1.45c-0.27,0.38-0.55,0.73-0.87,1.06
		c0.22,0.05,0.44,0.07,0.66,0.15C136.55,1137.09,136.73,1137.19,136.92,1137.27z"/>
	<path class="st11" d="M129.69,1149.17c-0.3-0.44-0.55-0.9-0.78-1.37c-0.25,0.51-0.54,1-0.88,1.49c-0.06,0.09-0.14,0.16-0.21,0.25
		h0.8c0.17-0.05,0.55-0.15,1.12-0.29C129.73,1149.22,129.7,1149.2,129.69,1149.17z"/>
	<path class="st11" d="M129.35,1133.54c-0.36,0.97-0.85,1.86-1.45,2.64c0.43,0.52,0.96,0.93,1.6,1.16c0.42,0.15,0.86,0.2,1.3,0.19
		c0.78-0.48,1.65-0.78,2.58-0.86c1.23-0.83,2.23-2.13,2.81-3.71c0.61-1.65,0.68-3.37,0.22-4.85c-0.44-1.4-1.32-2.4-2.48-2.83
		c-1.57-0.58-3.34,0.01-4.75,1.36c0.15,0.31,0.3,0.62,0.41,0.96C130.17,1129.44,130.09,1131.55,129.35,1133.54z"/>
	<path class="st11" d="M143.7,1143.91c-0.28-0.06-0.56-0.13-0.84-0.23c0.2,0.58,0.36,1.17,0.46,1.76
		C143.4,1144.93,143.54,1144.42,143.7,1143.91z"/>
	<path class="st11" d="M127.01,1134.48c0.29-0.47,0.56-0.97,0.76-1.52c0.6-1.64,0.68-3.34,0.22-4.81c-0.29,0.47-0.56,0.97-0.76,1.52
		C126.61,1131.36,126.58,1133.08,127.01,1134.48z"/>
	<path class="st11" d="M125.51,1143.41c-0.56,0-1.15,0.09-1.74,0.27c-1.7,0.52-3.27,1.71-4.42,3.35c-0.56,0.79-0.98,1.64-1.27,2.51
		h7.54c0.37-0.37,0.72-0.78,1.03-1.22c0.69-0.97,1.13-2.01,1.4-3.04c-0.08-0.41-0.15-0.81-0.18-1.22
		C127.18,1143.64,126.38,1143.41,125.51,1143.41z"/>
	<path class="st11" d="M86.28,1139.15c1.71-0.79,3.52-1.15,5.22-1.09c-0.02-0.75,0.03-1.52,0.16-2.31c-0.06-0.16-0.1-0.33-0.16-0.49
		c-0.7-1.58-1.82-2.6-3.16-2.87c-2.88-0.59-5.9,2.38-6.77,6.6c-0.18,0.89-0.23,1.76-0.2,2.6c0.29,0.21,0.55,0.44,0.81,0.67
		C83.2,1141.03,84.59,1139.93,86.28,1139.15z"/>
	<path class="st11" d="M153.1,1148.84c-0.33-0.41-0.64-0.85-0.92-1.32c-2.2-0.04-4.71,0.15-7.25,0.47c0.02,0.15,0.01,0.31,0.04,0.46
		c0.07,0.39,0.18,0.74,0.3,1.09h7.08C152.62,1149.31,152.87,1149.07,153.1,1148.84z"/>
	<path class="st11" d="M143.28,1148.48c-0.07,0.37-0.16,0.72-0.28,1.06h0.53c-0.08-0.26-0.17-0.51-0.22-0.79
		C143.29,1148.66,143.3,1148.57,143.28,1148.48z"/>
	<path class="st11" d="M146.32,1151.22c0.32,0.34,0.68,0.64,1.09,0.86c0.49,0.25,1.01,0.37,1.55,0.42v-1.28H146.32z"/>
	<path class="st11" d="M105.39,1132.91c0.98-1.27,2.44-2.15,4.26-2.47c1.63-0.29,3.38-0.13,5.06,0.45c0.59-0.3,1.15-0.62,1.68-0.93
		c0.25-0.15,0.48-0.32,0.72-0.47c0.04-0.14,0.06-0.27,0.11-0.41c0.49-1.33,1.24-2.46,2.13-3.37c-1.96,0.66-4.35,1.31-7.3,1.9
		c-3.39,0.68-6.06,1.35-8.18,1.99c0.37,0.48,0.71,1.01,0.98,1.62C105.08,1131.75,105.25,1132.32,105.39,1132.91z"/>
	<path class="st11" d="M97.4,1141.44c0.07,0.15,0.09,0.31,0.14,0.46c0.09-0.29,0.16-0.58,0.3-0.85c1.03-1.99,3.28-3.04,5.87-3.08
		c0.02-0.08,0.05-0.14,0.06-0.22c0.15-0.73,0.2-1.44,0.2-2.15c-0.39,0.02-0.78,0.05-1.18,0.05c-2.55,0-5.24-0.4-8.04-1.33
		c-0.34-0.12-0.58-0.44-0.58-0.8c0-0.65,0.6-2.4,6.03-4.47c-0.02-0.01-0.05-0.02-0.07-0.02c-2.88-0.58-5.89,2.36-6.76,6.56
		c0.29,0.91,0.45,1.88,0.48,2.9C95.5,1139.04,96.76,1140.04,97.4,1141.44z"/>
	<path class="st11" d="M152.15,1151.8c0.32-0.17,0.63-0.35,0.93-0.58h-0.12C152.7,1151.43,152.43,1151.62,152.15,1151.8z"/>
	<path class="st11" d="M103.86,1133.93c-0.12-0.71-0.29-1.4-0.56-2.03c-0.31-0.7-0.72-1.27-1.18-1.74
		c-3.57,1.22-5.13,2.27-5.79,2.89C98.97,1133.8,101.5,1134.04,103.86,1133.93z"/>
	<path class="st11" d="M129.78,1141.5c0.16,0.68,0.2,1.4,0.18,2.14c1.21,1.32,1.77,3.15,1.68,5.13c2.49-0.6,6.19-1.41,10.1-2.03
		c-0.04-1.5-0.52-3.04-1.41-4.45c-0.83-0.66-1.57-1.48-2.18-2.42c-0.72-0.55-1.5-0.98-2.31-1.25c-0.63-0.21-1.25-0.31-1.84-0.31
		c-0.03,0-0.05,0.01-0.08,0.01c-0.84,0.49-1.71,0.79-2.58,0.88C130.61,1139.76,130.08,1140.55,129.78,1141.5z"/>
	<path class="st11" d="M83.23,1149.54h0.78c0.02-0.15,0.03-0.31,0.03-0.46c-0.68-0.27-1.31-0.66-1.85-1.18
		c0.05,0.17,0.07,0.34,0.15,0.5C82.54,1148.84,82.86,1149.21,83.23,1149.54z"/>
	<path class="st11" d="M158.36,1142.27c0.38,2.12-0.02,4.46-1.12,6.58c-0.13,0.24-0.27,0.46-0.41,0.69h6.73
		c2.05-1.99,2.57-5.75,1.01-9.3c-0.92-2.11-2.41-3.81-4.2-4.79c-1.01-0.55-2.05-0.83-3.04-0.83c-0.69,0-1.35,0.14-1.98,0.41
		c-0.9,0.39-1.61,1.05-2.16,1.87c0.63,0.1,1.25,0.25,1.83,0.56C156.78,1138.36,157.96,1140.07,158.36,1142.27z"/>
	<path class="st11" d="M83.59,1146.9c-0.27-0.65-0.64-1.3-1.12-1.93c-0.05,0.11-0.12,0.22-0.16,0.33
		C82.65,1145.95,83.08,1146.49,83.59,1146.9z"/>
	<path class="st11" d="M96.17,1144.04c0.07-0.67-0.03-1.31-0.3-1.89v0c-0.39-0.84-1.11-1.48-2.08-1.9c-0.03,0.26-0.06,0.52-0.1,0.78
		C94.21,1142.43,95.06,1143.51,96.17,1144.04z"/>
	<path class="st11" d="M89.25,1146.32c1.34-1.25,2.31-3.09,2.73-5.18c-0.14-0.44-0.24-0.89-0.32-1.36
		c-0.18-0.01-0.36-0.05-0.55-0.05c-1.34,0-2.77,0.32-4.13,0.95c-1.52,0.7-2.74,1.69-3.61,2.79c1.14,1.33,1.88,2.81,2.17,4.27
		C86.79,1147.88,88.09,1147.4,89.25,1146.32z"/>
	<path class="st11" d="M111.28,1131.98c-0.45,0-0.9,0.04-1.33,0.12c-1.19,0.21-2.18,0.73-2.9,1.46c1.86-0.34,3.59-0.87,5.17-1.51
		C111.9,1132.01,111.59,1131.98,111.28,1131.98z"/>
	<path class="st11" d="M75.23,1151.22h-0.62c0.46,0.31,0.93,0.57,1.41,0.79c0,0,0,0,0-0.01
		C75.76,1151.73,75.5,1151.47,75.23,1151.22z"/>
	<path class="st11" d="M77.53,1151.22c0.43,0.51,0.8,1.04,1.12,1.59c0.34,0.05,0.68,0.09,1.01,0.09c0.01,0,0.01,0,0.02,0
		c1.49,0,2.68-0.51,3.46-1.38c-0.18-0.1-0.38-0.18-0.55-0.3H77.53z"/>
	<path class="st11" d="M135.44,1151.66c1.61,0.53,3.14,0.38,4.33-0.42c0.01,0,0.01-0.01,0.02-0.01h-5.35
		C134.76,1151.39,135.09,1151.55,135.44,1151.66z"/>
	<path class="st11" d="M117.66,1141.97c-0.4,0.56-0.7,1.16-0.96,1.77c1.29-0.41,2.31-1.18,2.87-2.25v0c0.3-0.57,0.42-1.19,0.45-1.83
		C119.13,1140.26,118.33,1141.03,117.66,1141.97z"/>
	<path class="st11" d="M141.59,1141.12c0.01,0.01,0.01,0.02,0.01,0.02c0.29,0.21,0.59,0.42,0.9,0.58c0.62,0.33,1.25,0.5,1.87,0.58
		c0.02-0.04,0.03-0.09,0.06-0.13c1.16-2.23,2.94-3.88,4.88-4.73c0.06-1.29-0.19-2.7-0.82-4.07c-0.81-1.75-2.08-3.14-3.59-3.93
		c-0.82-0.43-1.65-0.64-2.44-0.64c-0.6,0-1.18,0.12-1.71,0.37c-1.24,0.57-2.12,1.76-2.49,3.34c-0.38,1.66-0.15,3.54,0.66,5.29
		c0.16,0.35,0.36,0.68,0.56,1C140.26,1139.45,140.98,1140.22,141.59,1141.12z"/>
	<path class="st11" d="M108.29,1140.79c-0.39-0.2-0.79-0.38-1.18-0.53c0.8,1.1,1.9,2.05,3.23,2.74c0.43,0.22,0.87,0.41,1.31,0.56
		C110.84,1142.5,109.7,1141.52,108.29,1140.79z"/>
	<path class="st11" d="M152.92,1145.32c0.09,0.2,0.2,0.37,0.29,0.55c0.46,0.03,0.91,0.05,1.34,0.1c0.58,0.07,1.07,0.44,1.29,0.98
		c0.09,0.21,0.11,0.43,0.1,0.64c0.76-1.66,1.04-3.42,0.75-5.03c-0.3-1.68-1.17-2.96-2.45-3.63c-0.57-0.3-1.18-0.43-1.81-0.46
		C151.79,1140.46,151.88,1142.94,152.92,1145.32z"/>
	<path class="st11" d="M146.46,1142.06c0.06-0.03,0.13-0.03,0.2-0.06c1-0.46,1.74-1.31,2.18-2.38
		C147.95,1140.22,147.13,1141.04,146.46,1142.06z"/>
	<path class="st11" d="M116.67,1131.72c-0.03,0.01-0.05,0.03-0.08,0.04c0.02,0.01,0.04,0.03,0.07,0.04
		C116.66,1131.78,116.67,1131.75,116.67,1131.72z"/>
	<path class="st11" d="M122.23,1151.66c0.36-0.11,0.72-0.27,1.07-0.44h-5.26C119.19,1151.98,120.66,1152.15,122.23,1151.66z"/>
	<path class="st11" d="M126.75,1137.41C126.75,1137.42,126.74,1137.42,126.75,1137.41c0,0.01,0,0.01,0.01,0.02
		C126.76,1137.43,126.75,1137.42,126.75,1137.41z"/>
	<path class="st11" d="M128.92,1138.93c-0.23-0.08-0.42-0.22-0.63-0.33c0.23,0.26,0.43,0.54,0.61,0.84c0.09-0.15,0.19-0.29,0.3-0.43
		C129.11,1138.97,129.01,1138.96,128.92,1138.93L128.92,1138.93z"/>
	<path class="st11" d="M102.8,1151.22h-8.38c-0.46,0.88-0.83,1.87-1.04,2.94c-0.86,4.22,0.77,8.13,3.64,8.72
		c1.33,0.27,2.77-0.23,4.03-1.4c1.34-1.25,2.31-3.1,2.74-5.19c0.33-1.62,0.29-3.23-0.08-4.66c-0.29-0.12-0.58-0.24-0.86-0.39
		C102.83,1151.24,102.81,1151.23,102.8,1151.22z"/>
	<path class="st11" d="M98.68,1147.6c-1.12,0.21-2.19,0.9-3.09,1.94h4.82C99.73,1148.94,99.15,1148.29,98.68,1147.6z"/>
	<path class="st11" d="M112.72,1145.57c-1.07-0.2-2.15-0.55-3.17-1.08c-2.07-1.08-3.7-2.71-4.62-4.61
		c-0.61,1.69-1.55,3.18-2.74,4.29c-0.83,0.77-1.73,1.29-2.66,1.6c0.01,0.02,0.01,0.03,0.02,0.05c0.31,0.01,0.61,0.03,0.92,0.09
		c1.81,0.37,3.3,1.66,4.24,3.62h7.26c0.24-0.24,0.44-0.52,0.6-0.82C113.06,1147.78,113.08,1146.68,112.72,1145.57z"/>
	<path class="st11" d="M121.7,1139.2c0.05,1.07-0.14,2.12-0.64,3.08v0c-0.92,1.76-2.65,2.95-4.87,3.35c-0.02,0-0.05,0-0.07,0.01
		c-0.1,0.55-0.16,1.09-0.13,1.63c0.03,0.71,0.19,1.36,0.43,1.94c0.34-1.09,0.86-2.16,1.55-3.14c1.37-1.94,3.25-3.36,5.3-3.98
		c1.66-0.51,3.26-0.45,4.65,0.14c0.03-0.23,0.06-0.47,0.11-0.69c-0.3-0.97-0.83-1.81-1.64-2.38c-0.39-0.27-0.82-0.47-1.28-0.6
		c-0.91,0.47-1.86,0.72-2.79,0.72C122.12,1139.25,121.91,1139.22,121.7,1139.2z"/>
	<path class="st11" d="M114.07,1149.49L114.07,1149.49c-0.01,0.02-0.02,0.03-0.03,0.04h0.72c-0.13-0.36-0.23-0.74-0.3-1.13
		C114.36,1148.78,114.25,1149.15,114.07,1149.49z"/>
	<path class="st11" d="M122.72,1153.27c-0.77,0.24-1.52,0.35-2.25,0.35c-0.96,0-1.88-0.2-2.7-0.61c0.21,1.36,0.83,2.49,1.82,3.19
		c1.17,0.82,2.7,1,4.32,0.51c1.7-0.52,3.27-1.71,4.42-3.34c0.49-0.69,0.84-1.42,1.12-2.15h-3.2
		C125.19,1152.16,123.99,1152.88,122.72,1153.27z"/>
	<path class="st11" d="M106.09,1138.23c1,0.22,2,0.55,2.99,1.07c2.23,1.16,3.91,2.89,4.81,4.73c0.29,0.02,0.58,0.05,0.87,0.04
		c0.34-1.06,0.85-2.1,1.53-3.06c0.81-1.15,1.81-2.08,2.9-2.8c-1.32-0.98-2.18-2.55-2.47-4.38c-0.38-0.27-0.78-0.53-1.21-0.75
		c-0.24-0.13-0.49-0.23-0.74-0.33c-2.61,1.28-5.57,2.28-8.8,2.7C105.73,1136.3,105.78,1137.25,106.09,1138.23z"/>
	<path class="st11" d="M95.45,1146.18c0.1-0.18,0.16-0.35,0.24-0.53c-1.05-0.45-1.94-1.21-2.63-2.23c-0.61,1.62-1.51,3.05-2.66,4.12
		c-1.36,1.27-2.9,1.93-4.45,1.93c-0.09,0-0.17-0.02-0.26-0.03c0,0.03,0,0.06,0,0.09h6.12C93.39,1148.69,94.68,1147.53,95.45,1146.18
		z"/>
	<path class="st11" d="M135.98,1149.54h5.23c0.16-0.33,0.29-0.68,0.38-1.05C139.61,1148.81,137.7,1149.18,135.98,1149.54z"/>
	<path class="st11" d="M97.24,1146.28c0.15-0.06,0.3-0.13,0.45-0.18c-0.12,0-0.24-0.03-0.36-0.04
		C97.31,1146.14,97.27,1146.21,97.24,1146.28z"/>
	<path class="st11" d="M173.88,1148.06c-0.79-0.61-1.75-0.9-2.77-0.9c-1.74,0-3.65,0.85-5.2,2.38h9.17
		C174.78,1148.96,174.39,1148.45,173.88,1148.06z"/>
	<path class="st11" d="M102.37,1148.99c-0.38-0.45-0.8-0.83-1.27-1.08C101.48,1148.29,101.9,1148.66,102.37,1148.99z"/>
	<path class="st11" d="M164.87,1159.82c2.42,1.85,6.42,0.73,8.9-2.51c1.23-1.6,1.9-3.47,1.89-5.25c0-0.29-0.05-0.56-0.08-0.83
		h-11.03C162.53,1154.35,162.6,1158.08,164.87,1159.82z"/>
	<path class="st11" d="M103.19,1139.68c-1.73,0.14-3.17,0.85-3.84,2.15c-0.37,0.72-0.45,1.53-0.32,2.37
		c0.69-0.24,1.38-0.65,2.02-1.25C101.95,1142.1,102.67,1140.96,103.19,1139.68z"/>
	<path class="st11" d="M81.08,1149.54c-0.09-0.15-0.2-0.28-0.28-0.44c-0.52-1.12-0.55-2.35-0.26-3.59c-0.4-0.9-0.67-1.9-0.79-2.97
		c-1.54-0.98-3.23-1.53-4.81-1.53c-0.01,0-0.01,0-0.02,0c-1.64,0-2.96,0.59-3.71,1.65c-0.75,1.06-0.86,2.5-0.31,4.04
		c0.08,0.22,0.2,0.44,0.3,0.66c1.57,0.27,3.19,1,4.64,2.18H81.08z"/>
	<path class="st11" d="M71.92,1147.93c-0.01-0.01-0.02-0.01-0.04-0.02c0,0.01,0.01,0.01,0.01,0.02H71.92z"/>
	<path class="st11" d="M69.32,1147.29c-0.05,0-0.1-0.01-0.15-0.01c-0.85,0-1.62,0.22-2.27,0.65h2.85
		C69.61,1147.72,69.45,1147.51,69.32,1147.29z"/>
	<path class="st11" d="M66.06,1153.7c0.2,1.74,1.06,3.53,2.42,5.06c1.36,1.52,3.05,2.57,4.76,2.96c1.6,0.36,3.02,0.09,3.98-0.78l0,0
		c0.96-0.86,1.39-2.24,1.21-3.87c-0.1-0.92-0.4-1.85-0.85-2.74c-1.43-0.32-2.86-0.94-4.17-1.86c-0.54-0.38-1.02-0.8-1.48-1.24h-5.58
		C66.07,1151.94,65.96,1152.77,66.06,1153.7z"/>
	<path class="st3" d="M85.49,1150.64c0.07,0.02,0.12,0.04,0.19,0.06c1.72,0.32,3.69,0.03,5.54-0.83c0.21-0.1,0.39-0.22,0.59-0.32
		h-6.12C85.67,1149.92,85.58,1150.28,85.49,1150.64z"/>
	<path class="st3" d="M155.57,1151.22h0.19c-0.04-0.02-0.08-0.05-0.12-0.07C155.62,1151.18,155.6,1151.2,155.57,1151.22z"/>
	<path class="st3" d="M152.96,1151.22h0.12c0.43-0.32,0.83-0.7,1.21-1.12c-0.02-0.01-0.03-0.03-0.05-0.04
		C153.86,1150.46,153.43,1150.86,152.96,1151.22z"/>
	<path class="st3" d="M156.66,1149.81c1.76,1.13,3.75,1.48,5.47,0.73c0.54-0.24,1-0.6,1.42-1h-6.73
		C156.77,1149.63,156.72,1149.72,156.66,1149.81z"/>
	<path class="st3" d="M77.53,1151.22h5.07c-0.64-0.45-1.14-1.03-1.52-1.69h-5.24c0.5,0.4,0.98,0.85,1.43,1.35
		C77.37,1151,77.44,1151.11,77.53,1151.22z"/>
	<path class="st3" d="M92.24,1151.22h0.32c0.04-0.08,0.07-0.16,0.11-0.24C92.52,1151.07,92.39,1151.15,92.24,1151.22z"/>
	<path class="st3" d="M114.04,1149.54c-0.36,0.67-0.86,1.23-1.46,1.69h3.07c-0.38-0.5-0.67-1.07-0.89-1.69H114.04z"/>
	<path class="st3" d="M73.62,1149.48c0.07,0.05,0.15,0.09,0.22,0.14h0.62c-0.8-0.73-1.67-1.29-2.54-1.69H71.9
		C72.41,1148.49,72.97,1149.02,73.62,1149.48z"/>
	<path class="st3" d="M131.25,1151.22h0.26c-0.07-0.06-0.14-0.13-0.21-0.19C131.28,1151.1,131.27,1151.16,131.25,1151.22z"/>
	<path class="st4" d="M178.19,1149.54h-1.3c0.19,0.53,0.31,1.09,0.38,1.69h0.93c3.86,0,7.01,3.15,7.01,7.01v1.15
		c0,3.86-3.15,7.01-7.01,7.01H57.37c-3.86,0-7.01-3.15-7.01-7.01v-1.15c0-3.86,3.15-7.01,7.01-7.01h7.21
		c0.16-0.61,0.4-1.18,0.74-1.69h-7.95c-4.79,0-8.7,3.9-8.7,8.7v1.15c0,4.79,3.9,8.7,8.7,8.7h120.82c4.79,0,8.7-3.9,8.7-8.7v-1.15
		C186.88,1153.44,182.98,1149.54,178.19,1149.54z"/>
	<path class="st3" d="M83.23,1149.54c0.21,0.18,0.43,0.35,0.68,0.5c0.04-0.16,0.07-0.33,0.09-0.5H83.23z"/>
	<path class="st3" d="M143,1149.54c-0.22,0.62-0.51,1.18-0.89,1.69h2.12c-0.3-0.51-0.53-1.08-0.71-1.69H143z"/>
	<path class="st3" d="M104.84,1149.76c0.09,0.19,0.14,0.41,0.21,0.61c2.76,0.97,5.5,0.64,6.93-0.83h-7.26
		C104.75,1149.62,104.8,1149.68,104.84,1149.76z"/>
	<path class="st3" d="M100.41,1149.54h-4.82c-0.43,0.5-0.83,1.05-1.17,1.69h8.38C101.9,1150.75,101.11,1150.17,100.41,1149.54z"/>
	<path class="st3" d="M132.9,1150.22c0.48,0.4,1,0.73,1.53,1h5.35c0.61-0.42,1.09-1,1.43-1.69h-5.23
		C134.85,1149.78,133.81,1150.01,132.9,1150.22z"/>
	<path class="st3" d="M118.08,1149.54c-0.16,0.48-0.28,0.97-0.34,1.46c0.06,0.05,0.11,0.11,0.17,0.16c0.04,0.03,0.09,0.04,0.13,0.07
		h5.26c0.84-0.41,1.62-0.98,2.32-1.69H118.08z"/>
	<path class="st3" d="M128.51,1149.57c0.02,0,0.08-0.02,0.11-0.03h-0.8c-0.47,0.63-1,1.18-1.57,1.69h3.2
		c0.02-0.06,0.05-0.12,0.07-0.18c-0.33,0.09-0.55,0.15-0.57,0.15L128.51,1149.57z"/>
	<path class="st3" d="M164.98,1150.75c-0.16,0.25-0.29,0.51-0.43,0.77h11.03c-0.08-0.72-0.25-1.38-0.51-1.97h-9.17
		C165.58,1149.91,165.27,1150.3,164.98,1150.75z"/>
	<path class="st3" d="M152.35,1149.54h-7.08c0.25,0.66,0.61,1.22,1.05,1.69h2.64C150.12,1151.22,151.34,1150.43,152.35,1149.54z"/>
	<path class="st3" d="M97.24,1146.28c0.03-0.07,0.07-0.14,0.1-0.21c-0.22-0.02-0.44-0.02-0.66-0.07c-0.35-0.07-0.67-0.21-0.99-0.35
		c-0.08,0.18-0.14,0.35-0.24,0.53c-0.77,1.35-2.06,2.51-3.63,3.36h1.66C94.49,1148.01,95.81,1146.87,97.24,1146.28z"/>
	<path class="st3" d="M95.87,1142.15L95.87,1142.15c0.27,0.58,0.36,1.22,0.3,1.89c0.27,0.13,0.55,0.25,0.85,0.31
		c0.12,0.02,0.24,0.01,0.36,0.02c-0.13-0.85-0.08-1.68,0.16-2.47c-0.05-0.15-0.07-0.31-0.14-0.46c-0.65-1.4-1.9-2.41-3.54-2.95
		c0.02,0.58,0,1.16-0.07,1.75C94.76,1140.67,95.49,1141.31,95.87,1142.15z"/>
	<path class="st3" d="M86.99,1140.68c1.36-0.63,2.79-0.95,4.13-0.95c0.19,0,0.36,0.04,0.55,0.05c-0.1-0.55-0.15-1.12-0.16-1.71
		c-1.7-0.07-3.51,0.29-5.22,1.09c-1.68,0.78-3.07,1.88-4.09,3.12c0.43,0.38,0.83,0.78,1.19,1.2
		C84.24,1142.37,85.47,1141.38,86.99,1140.68z"/>
	<path class="st3" d="M93.48,1149.54h-1.66c-0.2,0.11-0.38,0.23-0.59,0.32c-1.85,0.86-3.82,1.15-5.54,0.83
		c-0.07-0.01-0.13-0.04-0.19-0.06c-0.06,0.2-0.11,0.4-0.19,0.59h6.94c0.15-0.07,0.29-0.16,0.43-0.24
		C92.91,1150.47,93.18,1149.99,93.48,1149.54z"/>
	<path class="st3" d="M82.6,1151.22h0.81c0.25-0.36,0.4-0.77,0.5-1.19c-0.25-0.15-0.48-0.31-0.68-0.5h-2.15
		C81.47,1150.19,81.96,1150.77,82.6,1151.22z"/>
	<path class="st3" d="M85.69,1149.45c-0.27-0.01-0.54-0.03-0.81-0.08c-0.3-0.06-0.57-0.19-0.85-0.3c0,0.16-0.01,0.31-0.03,0.46h1.69
		C85.7,1149.51,85.69,1149.48,85.69,1149.45z"/>
	<path class="st3" d="M85.22,1147.72c0.11,0.02,0.22,0.01,0.33,0.02c-0.29-1.46-1.04-2.94-2.17-4.27c-0.38,0.49-0.69,0.99-0.91,1.5
		c0.48,0.62,0.86,1.27,1.12,1.93C84.07,1147.29,84.61,1147.6,85.22,1147.72z"/>
	<path class="st3" d="M81.38,1141.6c0.02,0.55,0.07,1.08,0.18,1.59c0.2-0.31,0.39-0.62,0.64-0.92
		C81.93,1142.04,81.66,1141.81,81.38,1141.6z"/>
	<path class="st3" d="M71.2,1147.36c-0.1-0.22-0.22-0.44-0.3-0.66c-0.54-1.55-0.43-2.99,0.31-4.04c0.75-1.06,2.06-1.64,3.71-1.65
		c0.01,0,0.01,0,0.02,0c1.58,0,3.27,0.56,4.81,1.53c-0.07-0.65-0.1-1.32-0.07-2.01c-1.54-0.81-3.17-1.26-4.77-1.2
		c-2.2,0.01-4.01,0.85-5.08,2.36c-1.07,1.52-1.26,3.5-0.53,5.57c0,0.01,0.01,0.02,0.01,0.03
		C69.93,1147.23,70.56,1147.25,71.2,1147.36z"/>
	<path class="st3" d="M74.39,1151.11c-0.65-0.46-1.21-0.99-1.72-1.55h-2.14c0.41,0.59,0.87,1.16,1.41,1.69h2.68
		C74.54,1151.2,74.46,1151.16,74.39,1151.11z"/>
	<path class="st3" d="M85.69,1149.54h-1.69c-0.02,0.17-0.05,0.33-0.09,0.5c0.46,0.26,0.98,0.47,1.57,0.6
		C85.58,1150.28,85.67,1149.92,85.69,1149.54z"/>
	<path class="st3" d="M82.46,1144.97c0.22-0.51,0.53-1.02,0.91-1.5c-0.36-0.42-0.75-0.82-1.19-1.2c-0.24,0.3-0.44,0.61-0.64,0.92
		c0.08,0.38,0.18,0.74,0.3,1.09C82.07,1144.51,82.28,1144.74,82.46,1144.97z"/>
	<path class="st3" d="M83.41,1151.22h1.88c0.08-0.19,0.14-0.39,0.19-0.59c-0.59-0.13-1.11-0.34-1.57-0.6
		C83.81,1150.46,83.66,1150.86,83.41,1151.22z"/>
	<path class="st3" d="M75.84,1149.54c-1.46-1.18-3.08-1.91-4.64-2.18c0.35,0.76,0.84,1.49,1.45,2.16c0.01,0.01,0.02,0.01,0.04,0.02
		H75.84z"/>
	<path class="st3" d="M69.94,1148.91c0.05,0,0.1,0.01,0.15,0.01c-0.31-0.52-0.57-1.06-0.77-1.61c-1.19,0.11-2.3,0.5-3.17,1.28
		c-0.32,0.29-0.59,0.61-0.83,0.97h2.35C68.32,1149.13,69.1,1148.91,69.94,1148.91z"/>
	<path class="st3" d="M77.53,1151.22c-0.09-0.11-0.16-0.23-0.26-0.34c-0.45-0.5-0.93-0.95-1.43-1.35h-3.15
		c0.87,0.39,1.74,0.96,2.54,1.69H77.53z"/>
	<path class="st3" d="M72.65,1149.54c-0.61-0.67-1.1-1.4-1.45-2.16c-0.64-0.11-1.27-0.12-1.88-0.07c0.2,0.55,0.46,1.09,0.77,1.61
		C70.91,1148.94,71.78,1149.16,72.65,1149.54z"/>
	<path class="st3" d="M81.38,1141.6c-0.03-0.84,0.02-1.71,0.2-2.6c0.86-4.22,3.88-7.18,6.77-6.6c1.34,0.27,2.46,1.29,3.16,2.87
		c0.07,0.15,0.11,0.33,0.16,0.49c0.03-0.16,0.03-0.31,0.06-0.47c0.14-0.7,0.34-1.37,0.59-2c-0.92-1.35-2.17-2.25-3.63-2.54
		c-3.77-0.77-7.71,2.78-8.75,7.91c-0.13,0.63-0.2,1.25-0.24,1.86c0.51,0.27,1.02,0.58,1.51,0.93
		C81.26,1141.5,81.31,1141.55,81.38,1141.6z"/>
	<path class="st3" d="M93.8,1140.25c0.06-0.59,0.09-1.18,0.07-1.75c-0.22-0.07-0.45-0.15-0.69-0.2c0.03,0.63,0.09,1.24,0.22,1.81
		C93.53,1140.15,93.67,1140.19,93.8,1140.25z"/>
	<path class="st3" d="M85.69,1149.45c0.03-0.56-0.03-1.13-0.14-1.71c-0.11-0.01-0.22,0-0.33-0.02c-0.61-0.12-1.15-0.43-1.63-0.82
		c0.3,0.74,0.45,1.48,0.45,2.18c0.28,0.11,0.55,0.24,0.85,0.3C85.15,1149.43,85.42,1149.44,85.69,1149.45z"/>
	<path class="st3" d="M79.75,1142.54c0.16,0.1,0.32,0.18,0.47,0.29c0.37,0.26,0.7,0.54,1.02,0.83c0.09-0.16,0.21-0.31,0.31-0.47
		c-0.1-0.51-0.16-1.04-0.18-1.59c-0.06-0.05-0.12-0.1-0.18-0.15c-0.49-0.35-0.99-0.66-1.51-0.93
		C79.65,1141.22,79.68,1141.89,79.75,1142.54z"/>
	<path class="st3" d="M81.86,1144.28c-0.12-0.35-0.23-0.71-0.3-1.09c-0.1,0.16-0.23,0.31-0.31,0.47
		C81.46,1143.86,81.66,1144.07,81.86,1144.28z"/>
	<path class="st3" d="M104.27,1137.98c-0.17-0.81-0.17-1.61-0.05-2.39c-0.08,0-0.16,0.01-0.24,0.01c-0.01,0.71-0.06,1.42-0.2,2.15
		c-0.02,0.08-0.04,0.15-0.06,0.22C103.91,1137.97,104.09,1137.97,104.27,1137.98z"/>
	<path class="st3" d="M91.5,1138.06c0.23,0.01,0.45,0.04,0.68,0.07c-0.06-0.84-0.25-1.63-0.52-2.37
		C91.53,1136.54,91.49,1137.31,91.5,1138.06z"/>
	<path class="st3" d="M93.38,1135.6c0.87-4.2,3.88-7.14,6.76-6.56c0.02,0,0.05,0.02,0.07,0.02c0.67-0.26,1.42-0.52,2.24-0.78
		c-0.61-0.42-1.26-0.75-1.98-0.9c-3.26-0.66-6.63,1.9-8.17,5.91c0.27,0.4,0.52,0.82,0.73,1.3
		C93.18,1134.91,93.28,1135.26,93.38,1135.6z"/>
	<path class="st3" d="M97.6,1145.38c-0.07,0.23-0.17,0.45-0.26,0.68c0.12,0.01,0.24,0.03,0.36,0.04c0.05-0.02,0.11-0.03,0.16-0.04
		C97.76,1145.84,97.67,1145.61,97.6,1145.38z"/>
	<path class="st3" d="M95.69,1145.65c0.32,0.14,0.64,0.28,0.99,0.35c0.22,0.04,0.44,0.05,0.66,0.07c0.09-0.23,0.19-0.45,0.26-0.68
		c-0.11-0.34-0.17-0.68-0.22-1.01c-0.12-0.01-0.24,0-0.36-0.02c-0.3-0.06-0.58-0.18-0.85-0.31
		C96.12,1144.56,95.94,1145.11,95.69,1145.65z"/>
	<path class="st3" d="M91.66,1139.77c0.17,0.01,0.33,0.02,0.5,0.04c0.05-0.57,0.06-1.14,0.02-1.69c-0.23-0.03-0.45-0.06-0.68-0.07
		C91.51,1138.65,91.57,1139.22,91.66,1139.77z"/>
	<path class="st3" d="M91.66,1135.76c0.27,0.74,0.46,1.53,0.52,2.37c0.22,0.02,0.44,0.02,0.66,0.07c0.12,0.02,0.22,0.07,0.33,0.1
		c-0.03-0.86,0.01-1.75,0.2-2.66c0-0.01,0.01-0.02,0.01-0.03c-0.11-0.34-0.2-0.69-0.34-1.01c-0.21-0.47-0.46-0.9-0.73-1.3
		c-0.24,0.63-0.44,1.3-0.59,2C91.69,1135.45,91.69,1135.6,91.66,1135.76z"/>
	<path class="st3" d="M92.16,1139.82c0.12,0.02,0.25,0.01,0.37,0.03c0.31,0.06,0.59,0.15,0.87,0.25c-0.13-0.57-0.2-1.18-0.22-1.81
		c-0.12-0.03-0.22-0.07-0.33-0.1c-0.21-0.04-0.44-0.04-0.66-0.07C92.22,1138.68,92.21,1139.25,92.16,1139.82z"/>
	<path class="st3" d="M98.68,1147.6c-0.33-0.49-0.6-0.99-0.81-1.5c-0.04,0-0.08,0.01-0.12,0.01c-0.02,0-0.04-0.01-0.05-0.01
		c-0.15,0.05-0.3,0.11-0.45,0.18c-0.11,0.25-0.19,0.49-0.33,0.74c-0.53,0.92-1.24,1.77-2.1,2.52h0.78
		C96.49,1148.5,97.56,1147.81,98.68,1147.6z"/>
	<path class="st3" d="M102.37,1148.99c0.28,0.2,0.59,0.37,0.9,0.55h1.45c-0.94-1.96-2.42-3.25-4.24-3.62
		c-0.31-0.06-0.61-0.09-0.92-0.09c0.36,0.73,0.88,1.43,1.54,2.08C101.57,1148.16,101.99,1148.54,102.37,1148.99z"/>
	<path class="st3" d="M95.59,1149.54h-0.78c-0.63,0.55-1.37,1.03-2.14,1.45c-0.04,0.08-0.07,0.16-0.11,0.24h1.86
		C94.76,1150.59,95.16,1150.03,95.59,1149.54z"/>
	<path class="st3" d="M104.71,1149.54h-1.45c0.12,0.07,0.23,0.15,0.36,0.22c0.47,0.25,0.95,0.45,1.42,0.61
		c-0.07-0.2-0.12-0.42-0.21-0.61C104.8,1149.68,104.75,1149.62,104.71,1149.54z"/>
	<path class="st3" d="M96.91,1147.02c0.14-0.25,0.22-0.49,0.33-0.74c-1.43,0.59-2.75,1.73-3.76,3.26h1.33
		C95.67,1148.79,96.38,1147.94,96.91,1147.02z"/>
	<path class="st3" d="M92.67,1150.99c0.77-0.42,1.51-0.9,2.14-1.45h-1.33C93.18,1149.99,92.91,1150.47,92.67,1150.99z"/>
	<path class="st3" d="M97.7,1146.1c0.02,0,0.04,0.01,0.05,0.01c0.04,0,0.08-0.01,0.12-0.01c0-0.01-0.01-0.02-0.01-0.04
		C97.8,1146.08,97.75,1146.09,97.7,1146.1z"/>
	<path class="st3" d="M114.07,1149.49c0.18-0.35,0.3-0.72,0.39-1.09c-0.06-0.35-0.14-0.7-0.15-1.07c-0.02-0.52,0.01-1.05,0.08-1.58
		c-0.55-0.01-1.1-0.08-1.65-0.18c0.36,1.1,0.34,2.2-0.15,3.14c-0.16,0.3-0.36,0.58-0.6,0.82h2.06
		C114.05,1149.52,114.06,1149.51,114.07,1149.49L114.07,1149.49z"/>
	<path class="st3" d="M97.81,1144.4c0.41-0.01,0.81-0.06,1.22-0.2c-0.13-0.84-0.06-1.65,0.32-2.37c0.68-1.3,2.12-2.01,3.84-2.15
		c0.22-0.54,0.4-1.11,0.54-1.71c-2.59,0.03-4.84,1.09-5.87,3.08c-0.14,0.27-0.22,0.56-0.3,0.85
		C97.82,1142.69,97.92,1143.53,97.81,1144.4z"/>
	<path class="st3" d="M107.11,1140.26c0.4,0.15,0.79,0.32,1.18,0.53c1.4,0.73,2.54,1.71,3.35,2.77c0.74,0.26,1.5,0.4,2.24,0.46
		c-0.9-1.84-2.58-3.57-4.81-4.73c-0.98-0.51-1.99-0.85-2.99-1.07c0.08,0.26,0.15,0.51,0.27,0.77
		C106.56,1139.44,106.82,1139.86,107.11,1140.26z"/>
	<path class="st3" d="M99.56,1145.83c-0.01-0.02-0.01-0.03-0.02-0.05c-0.05,0.02-0.1,0.03-0.15,0.05
		C99.45,1145.83,99.5,1145.83,99.56,1145.83z"/>
	<path class="st3" d="M114.04,1149.54h-2.06c-1.43,1.47-4.17,1.8-6.93,0.83c0.1,0.28,0.21,0.56,0.29,0.85h7.24
		C113.18,1150.77,113.68,1150.21,114.04,1149.54z"/>
	<path class="st3" d="M102.79,1149.54h-2.39c0.7,0.63,1.49,1.21,2.39,1.69h0.76c-0.08-0.26-0.16-0.53-0.26-0.78
		C103.15,1150.11,102.97,1149.82,102.79,1149.54z"/>
	<path class="st3" d="M97.38,1144.37c0.14,0.01,0.28,0.03,0.43,0.03c0.11-0.87,0.02-1.71-0.26-2.5
		C97.3,1142.69,97.25,1143.52,97.38,1144.37z"/>
	<path class="st3" d="M103.79,1139.62c0.34,0,0.68,0.03,1.03,0.07c-0.26-0.57-0.43-1.14-0.55-1.71c-0.19-0.01-0.37-0.01-0.55-0.01
		c-0.13,0.6-0.32,1.16-0.54,1.71C103.39,1139.66,103.58,1139.62,103.79,1139.62z"/>
	<path class="st3" d="M97.86,1146.06c0.5-0.15,1.02-0.23,1.54-0.23c0.05-0.02,0.1-0.03,0.15-0.05c-0.26-0.53-0.43-1.06-0.51-1.58
		c-0.41,0.14-0.81,0.19-1.22,0.2c-0.04,0.33-0.11,0.66-0.21,0.99C97.67,1145.61,97.76,1145.84,97.86,1146.06z"/>
	<path class="st3" d="M97.81,1144.4c-0.14,0-0.28-0.01-0.43-0.03c0.05,0.34,0.11,0.67,0.22,1.01
		C97.7,1145.05,97.76,1144.72,97.81,1144.4z"/>
	<path class="st3" d="M102.79,1149.54h0.47c-0.31-0.18-0.62-0.35-0.9-0.55C102.52,1149.16,102.66,1149.34,102.79,1149.54z"/>
	<path class="st3" d="M97.87,1146.1c0.22,0.51,0.48,1.01,0.81,1.5c0.48-0.09,0.97-0.13,1.46-0.03c0.33,0.07,0.65,0.18,0.96,0.34
		c-0.66-0.65-1.18-1.36-1.54-2.08c-0.06,0-0.11,0-0.17,0C98.89,1145.98,98.38,1146.08,97.87,1146.1z"/>
	<path class="st3" d="M103.27,1149.54h-0.47c0.18,0.28,0.36,0.57,0.5,0.9c0.11,0.25,0.18,0.52,0.26,0.78h1.78
		c-0.08-0.3-0.19-0.57-0.29-0.85c-0.48-0.17-0.95-0.37-1.42-0.61C103.5,1149.69,103.39,1149.61,103.27,1149.54z"/>
	<path class="st3" d="M97.86,1146.06c0,0.01,0.01,0.02,0.01,0.04c0.51-0.01,1.02-0.11,1.52-0.27
		C98.87,1145.83,98.36,1145.91,97.86,1146.06z"/>
	<path class="st3" d="M116.72,1133.82c-0.1-0.65-0.11-1.32-0.06-2.02c-0.02-0.01-0.04-0.03-0.07-0.04
		c-0.59,0.34-1.19,0.66-1.82,0.97c0.25,0.1,0.5,0.21,0.74,0.33C115.94,1133.29,116.34,1133.55,116.72,1133.82z"/>
	<path class="st3" d="M105.44,1138.09C105.44,1138.09,105.43,1138.09,105.44,1138.09c0.22,0.04,0.43,0.09,0.65,0.14
		c-0.31-0.97-0.36-1.92-0.12-2.8c-0.1,0.01-0.2,0.03-0.3,0.04C105.67,1136.33,105.62,1137.21,105.44,1138.09z"/>
	<path class="st3" d="M120.95,1137.28c0.11-0.04,0.22-0.1,0.33-0.13c-0.53-1.53-1.54-2.98-2.96-4.17
		C118.45,1134.97,119.39,1136.63,120.95,1137.28z"/>
	<path class="st3" d="M107.05,1133.56c0.72-0.73,1.71-1.24,2.9-1.46c0.43-0.08,0.88-0.12,1.33-0.12c0.31,0,0.62,0.03,0.94,0.06
		c0.88-0.36,1.72-0.74,2.5-1.15c-1.68-0.58-3.43-0.75-5.06-0.45c-1.82,0.33-3.28,1.21-4.26,2.47c0.07,0.28,0.1,0.58,0.14,0.87
		C106.05,1133.72,106.56,1133.65,107.05,1133.56z"/>
	<path class="st3" d="M105.44,1138.09c0.18-0.88,0.23-1.76,0.23-2.62c-0.47,0.06-0.95,0.1-1.44,0.12c-0.13,0.77-0.12,1.57,0.05,2.39
		C104.65,1138,105.04,1138.03,105.44,1138.09C105.43,1138.09,105.44,1138.09,105.44,1138.09z"/>
	<path class="st3" d="M105.39,1132.91c-0.22,0.28-0.44,0.56-0.61,0.88c-0.01,0.02-0.01,0.05-0.03,0.07
		c0.26-0.02,0.52-0.05,0.78-0.08C105.49,1133.49,105.46,1133.2,105.39,1132.91z"/>
	<path class="st3" d="M106.36,1139c-0.12-0.26-0.19-0.52-0.27-0.77c-0.22-0.05-0.44-0.1-0.65-0.13c-0.11,0.56-0.27,1.09-0.45,1.62
		c0.69,0.1,1.41,0.28,2.12,0.55C106.82,1139.86,106.56,1139.44,106.36,1139z"/>
	<path class="st3" d="M113.89,1144.02c-0.75-0.06-1.5-0.2-2.24-0.46c0.49,0.65,0.86,1.33,1.08,2.01c0.55,0.1,1.11,0.17,1.65,0.18
		c0.01-0.09,0.04-0.17,0.05-0.26C114.3,1145,114.12,1144.51,113.89,1144.02z"/>
	<path class="st3" d="M105.43,1138.1c-0.39-0.06-0.78-0.1-1.16-0.12c0.12,0.57,0.29,1.14,0.55,1.71c0.05,0.01,0.11,0.02,0.16,0.02
		C105.16,1139.19,105.32,1138.65,105.43,1138.1z"/>
	<path class="st3" d="M116.66,1131.8c0.61,0.35,1.16,0.74,1.66,1.16c-0.05-0.77,0.02-1.58,0.23-2.41c-0.6,0.4-1.23,0.78-1.89,1.16
		C116.67,1131.75,116.66,1131.78,116.66,1131.8z"/>
	<path class="st3" d="M125.07,1125.19c0.14,0.03,0.29,0.04,0.43,0.1c0.63,0.23,1.16,0.64,1.6,1.18c0.36-0.46,0.74-0.89,1.16-1.26
		c-0.54-0.61-1.19-1.06-1.93-1.38c-0.14,0.16-0.27,0.31-0.37,0.42C125.71,1124.52,125.4,1124.85,125.07,1125.19z"/>
	<path class="st3" d="M116.72,1133.82c1.52,1.1,2.58,2.54,3.04,4.01c0.39-0.22,0.78-0.4,1.19-0.56c-1.56-0.64-2.5-2.31-2.63-4.31
		c-0.51-0.43-1.06-0.82-1.66-1.16C116.61,1132.5,116.62,1133.17,116.72,1133.82z"/>
	<path class="st3" d="M126.75,1137.41c0,0,0.01,0.01,0.01,0.02c0.2,0.11,0.42,0.19,0.61,0.33c0.35,0.24,0.64,0.54,0.92,0.84
		c0.21,0.11,0.4,0.24,0.63,0.33h0c0.09,0.03,0.19,0.05,0.28,0.08c0.39-0.51,0.83-0.98,1.36-1.35c0.07-0.05,0.16-0.07,0.24-0.12
		c-0.45,0.01-0.89-0.04-1.3-0.19c-0.64-0.23-1.17-0.64-1.6-1.16C127.55,1136.64,127.17,1137.05,126.75,1137.41z"/>
	<path class="st3" d="M133.93,1125.29c1.16,0.42,2.04,1.43,2.48,2.83c0.47,1.48,0.39,3.2-0.22,4.85c-0.58,1.58-1.58,2.88-2.81,3.71
		c0.74-0.07,1.52,0.02,2.32,0.21c0.31-0.33,0.6-0.68,0.87-1.06c-0.22-1.26-0.23-2.52,0.04-3.69c0.3-1.29,0.9-2.36,1.7-3.2
		c-0.06-0.45-0.15-0.89-0.29-1.32c-0.6-1.91-1.85-3.29-3.51-3.9c-2.09-0.76-4.42-0.11-6.25,1.51c0.37,0.41,0.66,0.91,0.92,1.44
		C130.58,1125.29,132.36,1124.71,133.93,1125.29z"/>
	<path class="st3" d="M125.83,1135.97c0.45-0.43,0.84-0.93,1.18-1.49c-0.43-1.4-0.4-3.12,0.22-4.81c0.2-0.55,0.47-1.05,0.76-1.52
		c0-0.01,0-0.02-0.01-0.03c-0.2-0.64-0.51-1.19-0.88-1.65c-0.59,0.76-1.09,1.64-1.45,2.62
		C124.75,1131.54,124.9,1134.05,125.83,1135.97z"/>
	<path class="st3" d="M127.9,1136.18c-0.39-0.48-0.69-1.05-0.89-1.7c-0.34,0.55-0.73,1.06-1.18,1.49c0.25,0.53,0.55,1.02,0.92,1.44
		C127.17,1137.05,127.55,1136.64,127.9,1136.18z"/>
	<path class="st3" d="M127.1,1126.47c0.37,0.46,0.68,1.01,0.88,1.65c0,0.01,0,0.02,0.01,0.03c0.35-0.57,0.74-1.08,1.19-1.5
		c-0.26-0.53-0.55-1.02-0.92-1.44C127.84,1125.58,127.46,1126.01,127.1,1126.47z"/>
	<path class="st3" d="M144.37,1142.3c-0.62-0.08-1.24-0.26-1.87-0.58c-0.31-0.16-0.61-0.37-0.9-0.58c0.54,0.81,0.95,1.67,1.26,2.55
		c0.28,0.09,0.56,0.17,0.84,0.23C143.88,1143.37,144.1,1142.83,144.37,1142.3z"/>
	<path class="st3" d="M137.78,1133.54c-0.31,0.83-0.73,1.59-1.21,2.28c0.09,0.49,0.2,0.97,0.36,1.45c0.9,0.37,1.76,0.87,2.54,1.52
		c-0.2-0.32-0.39-0.65-0.56-1c-0.81-1.75-1.04-3.63-0.66-5.29c0.36-1.58,1.25-2.77,2.49-3.34c0.53-0.25,1.11-0.37,1.71-0.37
		c0.79,0,1.62,0.21,2.44,0.64c1.51,0.79,2.79,2.18,3.59,3.93c0.63,1.37,0.89,2.78,0.82,4.07c0.55-0.24,1.1-0.4,1.66-0.51
		c-0.01-1.39-0.3-2.85-0.95-4.27c-0.96-2.09-2.51-3.76-4.35-4.72c-1.91-1-3.92-1.1-5.64-0.31c-0.66,0.31-1.22,0.76-1.72,1.29
		C138.52,1130.41,138.34,1132.01,137.78,1133.54z"/>
	<path class="st3" d="M136.57,1135.82c0.48-0.69,0.91-1.45,1.21-2.28c0.56-1.53,0.74-3.13,0.53-4.62c-0.8,0.84-1.4,1.91-1.7,3.2
		C136.34,1133.31,136.35,1134.56,136.57,1135.82z"/>
	<path class="st3" d="M143.7,1143.91c-0.17,0.51-0.3,1.02-0.39,1.53c0.06,0.35,0.09,0.7,0.1,1.05c0.5-0.07,1-0.14,1.51-0.2
		c0.08-0.77,0.26-1.54,0.55-2.3c-0.18,0.02-0.35,0.06-0.53,0.06C144.54,1144.05,144.12,1144,143.7,1143.91z"/>
	<path class="st3" d="M156.7,1142.57c0.29,1.61,0,3.37-0.75,5.03c-0.01,0.34-0.12,0.67-0.33,0.94c-0.07,0.08-0.15,0.18-0.23,0.27
		c0.28,0.27,0.58,0.51,0.88,0.73h0.56c0.14-0.23,0.29-0.45,0.41-0.69c1.1-2.12,1.5-4.46,1.12-6.58c-0.4-2.2-1.58-3.92-3.33-4.83
		c-0.58-0.3-1.2-0.46-1.83-0.56c-0.32,0.48-0.57,1.01-0.76,1.59c0.63,0.03,1.25,0.16,1.81,0.46
		C155.53,1139.61,156.4,1140.89,156.7,1142.57z"/>
	<path class="st12" d="M150.97,1137.67c0.1-0.26,0.17-0.53,0.28-0.77c-0.1,0.02-0.19,0.02-0.29,0.04
		C150.96,1137.18,150.98,1137.43,150.97,1137.67z"/>
	<path class="st3" d="M144.93,1148c-0.53,0.07-1.07,0.14-1.6,0.22c-0.01,0.09-0.03,0.18-0.04,0.26c0.01,0.09,0.01,0.18,0.02,0.27
		c0.05,0.28,0.15,0.53,0.22,0.79h1.74c-0.13-0.34-0.23-0.7-0.3-1.09C144.94,1148.3,144.94,1148.15,144.93,1148z"/>
	<path class="st3" d="M144.43,1142.17c-0.02,0.04-0.03,0.09-0.06,0.13c0.73,0.09,1.44,0.01,2.09-0.25c0.67-1.01,1.49-1.84,2.38-2.44
		c0.27-0.65,0.43-1.39,0.46-2.17C147.37,1138.29,145.59,1139.94,144.43,1142.17z"/>
	<path class="st3" d="M154.3,1150.11c-0.38,0.42-0.79,0.8-1.21,1.12h2.49c0.02-0.03,0.05-0.05,0.07-0.07
		C155.18,1150.84,154.73,1150.5,154.3,1150.11z"/>
	<path class="st3" d="M156.83,1149.54h-0.56c0.13,0.09,0.26,0.19,0.39,0.27C156.72,1149.72,156.77,1149.63,156.83,1149.54z"/>
	<path class="st3" d="M145.27,1149.54h-1.74c0.17,0.61,0.41,1.17,0.71,1.69h2.09C145.88,1150.76,145.52,1150.2,145.27,1149.54z"/>
	<path class="st3" d="M144.95,1144.05c0.18,0,0.35-0.04,0.53-0.06c0.13-0.35,0.27-0.7,0.45-1.04c0.16-0.31,0.35-0.61,0.54-0.9
		c-0.65,0.26-1.36,0.34-2.09,0.25c-0.27,0.53-0.49,1.06-0.67,1.61C144.12,1144,144.54,1144.05,144.95,1144.05z"/>
	<path class="st3" d="M148.84,1139.61c0.58-0.39,1.18-0.69,1.79-0.88c0.09-0.37,0.21-0.72,0.34-1.06c0.02-0.24,0-0.49-0.01-0.74
		c-0.56,0.11-1.11,0.27-1.66,0.51C149.26,1138.22,149.11,1138.96,148.84,1139.61z"/>
	<path class="st3" d="M165.91,1149.54c1.56-1.53,3.47-2.38,5.2-2.38c1.02,0,1.98,0.29,2.77,0.9c0.51,0.39,0.9,0.9,1.19,1.48h1.81
		c-0.4-1.13-1.05-2.1-1.98-2.82c-2.2-1.68-5.3-1.55-8.02,0c-0.23,1.04-0.64,1.98-1.18,2.82H165.91z"/>
	<path class="st3" d="M164.55,1151.22c0.14-0.22,0.27-0.44,0.43-0.66c0.29-0.38,0.6-0.71,0.93-1.03h-0.2
		c-0.42,0.64-0.89,1.22-1.47,1.69H164.55z"/>
	<path class="st3" d="M175.58,1151.58h1.68c-0.06-0.72-0.19-1.4-0.38-2.04h-1.81C175.33,1150.15,175.5,1150.83,175.58,1151.58z"/>
	<path class="st3" d="M155,1149.26c-0.08,0.09-0.17,0.18-0.25,0.27h0.03C154.86,1149.45,154.93,1149.36,155,1149.26z"/>
	<path class="st3" d="M153.21,1136.89c0.55-0.81,1.26-1.47,2.16-1.87c0.62-0.27,1.29-0.41,1.98-0.41c0.99,0,2.03,0.28,3.04,0.83
		c1.79,0.98,3.28,2.68,4.2,4.79c1.55,3.55,1.04,7.31-1.01,9.3h0.09c0.93-1.21,2.05-2.14,3.24-2.82c0.49-2.19,0.29-4.72-0.77-7.16
		c-1.07-2.45-2.82-4.43-4.93-5.59c-2.18-1.2-4.49-1.37-6.5-0.49c-1.53,0.67-2.7,1.89-3.43,3.42
		C151.91,1136.8,152.56,1136.79,153.21,1136.89z"/>
	<path class="st3" d="M162.14,1150.54c-1.73,0.75-3.71,0.4-5.47-0.73c-0.31,0.48-0.65,0.93-1.01,1.34c0.04,0.03,0.08,0.05,0.12,0.07
		h6.82c0.3-0.58,0.64-1.14,1.06-1.68c0,0,0,0,0-0.01h-0.09C163.14,1149.94,162.68,1150.3,162.14,1150.54z"/>
	<path class="st3" d="M154.75,1149.54c-0.16,0.17-0.32,0.35-0.5,0.53c0.02,0.01,0.03,0.03,0.05,0.04c0.17-0.18,0.33-0.37,0.49-0.57
		H154.75z"/>
	<path class="st3" d="M154.79,1149.54h1.48c-0.3-0.22-0.6-0.46-0.88-0.73c-0.12,0.15-0.25,0.3-0.39,0.45
		C154.93,1149.36,154.86,1149.45,154.79,1149.54z"/>
	<path class="st3" d="M150.82,1138.68c0.48-0.13,0.96-0.22,1.43-0.22c0.07,0,0.13,0.02,0.2,0.02c0.19-0.58,0.44-1.12,0.76-1.59
		c-0.64-0.1-1.29-0.09-1.95,0.01c-0.12,0.24-0.19,0.51-0.28,0.77C150.94,1138.02,150.88,1138.35,150.82,1138.68z"/>
	<path class="st3" d="M154.3,1150.11c0.43,0.39,0.88,0.74,1.35,1.05c0.37-0.41,0.7-0.86,1.01-1.34c-0.13-0.09-0.26-0.18-0.39-0.27
		h-1.48C154.63,1149.74,154.47,1149.92,154.3,1150.11z"/>
	<path class="st3" d="M150.97,1137.67c-0.13,0.35-0.25,0.69-0.34,1.06c0.06-0.02,0.13-0.03,0.19-0.05
		C150.88,1138.35,150.94,1138.02,150.97,1137.67z"/>
	<path class="st3" d="M163.65,1149.54h2.06c0.54-0.83,0.95-1.78,1.18-2.82C165.7,1147.4,164.58,1148.33,163.65,1149.54z"/>
	<path class="st3" d="M162.58,1151.22h1.65c0.58-0.46,1.06-1.05,1.47-1.69h-2.06c0,0,0,0,0,0.01
		C163.23,1150.08,162.88,1150.65,162.58,1151.22z"/>
	<path class="st3" d="M119.35,1147.03c1.16-1.64,2.73-2.83,4.42-3.35c0.6-0.18,1.19-0.27,1.74-0.27c0.87,0,1.66,0.23,2.35,0.65
		c-0.03-0.42-0.06-0.84-0.04-1.26c0.01-0.21,0.07-0.39,0.1-0.6c-1.39-0.58-2.99-0.65-4.65-0.14c-2.05,0.63-3.93,2.04-5.3,3.98
		c-0.7,0.99-1.22,2.05-1.55,3.14c0.05,0.11,0.07,0.23,0.12,0.34h1.54C118.37,1148.67,118.79,1147.82,119.35,1147.03z"/>
	<path class="st3" d="M131.08,1148.23c0.14,0.21,0.3,0.38,0.45,0.57c0.04-0.01,0.07-0.02,0.11-0.03c0.08-1.98-0.47-3.81-1.68-5.13
		c-0.02,0.54-0.08,1.08-0.2,1.63C130.02,1146.29,130.45,1147.3,131.08,1148.23z"/>
	<path class="st3" d="M116.54,1149.54c0.29,0.58,0.7,1.07,1.19,1.46c0.07-0.49,0.18-0.98,0.34-1.46H116.54z"/>
	<path class="st3" d="M130.93,1150.69c-0.6,0.15-1.07,0.27-1.41,0.35c-0.02,0.06-0.05,0.12-0.07,0.18h1.79
		c0.02-0.06,0.04-0.13,0.05-0.19C131.18,1150.91,131.05,1150.81,130.93,1150.69z"/>
	<path class="st3" d="M141.6,1141.14c-0.01-0.01-0.01-0.02-0.01-0.02c-0.61-0.9-1.33-1.67-2.12-2.33
		C140.05,1139.73,140.77,1140.53,141.6,1141.14z"/>
	<path class="st3" d="M128.04,1141.51c-0.05,0.22-0.08,0.46-0.11,0.69c0.11,0.05,0.2,0.11,0.31,0.17
		C128.19,1142.08,128.13,1141.79,128.04,1141.51z"/>
	<path class="st3" d="M143.22,1146.52c0.02-0.36,0.03-0.72,0.1-1.08c-0.1-0.59-0.25-1.18-0.46-1.76c-0.38-0.13-0.76-0.28-1.13-0.47
		c-0.49-0.25-0.95-0.57-1.39-0.92c0.9,1.41,1.38,2.95,1.41,4.45C142.23,1146.67,142.72,1146.59,143.22,1146.52z"/>
	<path class="st3" d="M134.12,1138.22c-0.07,0.04-0.13,0.07-0.2,0.11c0.03,0,0.05-0.01,0.08-0.01c0.59,0,1.21,0.1,1.84,0.31
		c0.81,0.27,1.59,0.7,2.31,1.25c-0.28-0.44-0.55-0.9-0.77-1.38c-0.19-0.4-0.32-0.82-0.46-1.23c-0.19-0.08-0.37-0.18-0.56-0.24
		c-0.22-0.07-0.44-0.09-0.66-0.15C135.22,1137.39,134.7,1137.86,134.12,1138.22z"/>
	<path class="st3" d="M143.26,1148.23c-0.56,0.08-1.12,0.17-1.67,0.26c-0.09,0.38-0.22,0.73-0.38,1.05h1.8
		c0.12-0.34,0.21-0.69,0.28-1.06C143.27,1148.4,143.27,1148.31,143.26,1148.23z"/>
	<path class="st3" d="M130.81,1137.54c0.8-0.01,1.62-0.24,2.42-0.74c0.06-0.04,0.1-0.08,0.16-0.12
		C132.46,1136.76,131.59,1137.06,130.81,1137.54z"/>
	<path class="st3" d="M129.78,1141.5c0.29-0.95,0.82-1.74,1.55-2.29c-0.19,0.02-0.39,0.04-0.58,0.04c-0.53,0-1.05-0.09-1.55-0.25
		c-0.11,0.14-0.21,0.28-0.3,0.43C129.3,1140.06,129.61,1140.75,129.78,1141.5z"/>
	<path class="st3" d="M141.21,1149.54c-0.34,0.69-0.81,1.27-1.43,1.69h2.34c0.37-0.5,0.67-1.07,0.89-1.69H141.21z"/>
	<path class="st3" d="M132.9,1150.22c-0.55,0.13-1.05,0.25-1.5,0.36c-0.04,0.15-0.05,0.3-0.1,0.45c0.07,0.07,0.14,0.13,0.21,0.19
		h2.92C133.89,1150.95,133.38,1150.62,132.9,1150.22z"/>
	<path class="st3" d="M130.81,1137.54c-0.08,0.05-0.16,0.07-0.24,0.12c-0.54,0.36-0.98,0.83-1.36,1.35
		c0.51,0.15,1.03,0.25,1.55,0.25c0.19,0,0.39-0.02,0.58-0.04c0.06-0.05,0.11-0.11,0.17-0.15c0.7-0.47,1.52-0.71,2.41-0.72
		c0.07-0.04,0.13-0.07,0.2-0.11c0.58-0.36,1.09-0.83,1.58-1.34c-0.79-0.19-1.57-0.28-2.32-0.21c-0.05,0.04-0.1,0.09-0.16,0.12
		C132.43,1137.29,131.6,1137.52,130.81,1137.54z"/>
	<path class="st3" d="M138.15,1139.88c0.77,0.59,1.46,1.32,2.04,2.18c0.05,0.08,0.09,0.16,0.14,0.24c0.44,0.35,0.91,0.66,1.39,0.92
		c0.38,0.2,0.75,0.34,1.13,0.47c-0.31-0.88-0.71-1.74-1.26-2.55c-0.83-0.61-1.55-1.41-2.14-2.35c-0.78-0.65-1.64-1.16-2.54-1.52
		c0.13,0.41,0.27,0.83,0.46,1.23C137.6,1138.98,137.87,1139.44,138.15,1139.88z"/>
	<path class="st3" d="M143.28,1148.48c0.02-0.09,0.03-0.17,0.04-0.26c-0.02,0-0.04,0.01-0.06,0.01
		C143.27,1148.31,143.27,1148.4,143.28,1148.48z"/>
	<path class="st3" d="M143.31,1145.44c-0.06,0.36-0.07,0.72-0.1,1.08c0.07-0.01,0.13-0.02,0.2-0.03
		C143.4,1146.14,143.37,1145.8,143.31,1145.44z"/>
	<path class="st3" d="M127.87,1144.06c0.07,0.04,0.15,0.08,0.22,0.13c0.06,0.05,0.11,0.11,0.17,0.16c0.1-0.69,0.08-1.34-0.02-1.97
		c-0.1-0.05-0.2-0.12-0.31-0.17c-0.03,0.2-0.08,0.39-0.1,0.6C127.8,1143.22,127.83,1143.64,127.87,1144.06z"/>
	<path class="st3" d="M129.95,1149.19c0.45-0.11,0.96-0.24,1.58-0.39c-0.15-0.19-0.31-0.37-0.45-0.57
		c-0.63-0.93-1.06-1.94-1.32-2.96c-0.06,0.29-0.1,0.57-0.19,0.86C129.95,1147.03,130.08,1148.09,129.95,1149.19z"/>
	<path class="st3" d="M131.3,1151.03c0.04-0.15,0.06-0.3,0.1-0.45c-0.16,0.04-0.32,0.08-0.47,0.11
		C131.05,1150.81,131.18,1150.91,131.3,1151.03z"/>
	<path class="st3" d="M124.8,1136.79c0.02-0.01,0.03-0.02,0.05-0.04c-1.03-0.16-2.13-0.09-3.26,0.26c-0.11,0.03-0.2,0.09-0.31,0.13
		c0.03,0.09,0.06,0.18,0.09,0.27C122.46,1137.71,123.66,1137.51,124.8,1136.79z"/>
	<path class="st3" d="M116.7,1143.74c0.26-0.61,0.57-1.2,0.96-1.77c0.66-0.94,1.47-1.71,2.35-2.31c0.01-0.34-0.01-0.67-0.06-1.02
		c-0.26-0.13-0.53-0.27-0.76-0.45c-1.09,0.73-2.09,1.66-2.9,2.8c-0.68,0.96-1.19,2-1.53,3.06c0.38-0.01,0.77-0.03,1.14-0.1
		C116.18,1143.91,116.44,1143.82,116.7,1143.74z"/>
	<path class="st3" d="M128.04,1141.51c0.18-0.77,0.47-1.46,0.86-2.08c-0.19-0.29-0.38-0.58-0.61-0.84c-0.57-0.31-1.1-0.68-1.53-1.17
		c-0.01,0-0.01-0.01-0.02-0.01c-0.33,0.29-0.68,0.57-1.05,0.8c-0.19,0.12-0.38,0.21-0.57,0.31c0.46,0.13,0.89,0.33,1.28,0.6
		C127.21,1139.71,127.74,1140.55,128.04,1141.51z"/>
	<path class="st3" d="M115.99,1147.26c-0.02-0.54,0.04-1.08,0.13-1.63c-0.51,0.09-1.03,0.14-1.55,0.14c-0.03,0-0.07-0.01-0.1-0.01
		c0.2,0.9,0.2,1.8-0.01,2.64c0.07,0.4,0.17,0.77,0.3,1.13h1.59c0.03-0.11,0.04-0.23,0.08-0.34
		C116.18,1148.61,116.02,1147.97,115.99,1147.26z"/>
	<path class="st3" d="M123.3,1151.22h2.95c0.57-0.5,1.1-1.06,1.57-1.69h-2.2C124.92,1150.25,124.13,1150.81,123.3,1151.22z"/>
	<path class="st3" d="M117.91,1151.16c-0.06-0.05-0.11-0.11-0.17-0.16c-0.01,0.08,0,0.15-0.01,0.23h0.31
		C118,1151.2,117.95,1151.18,117.91,1151.16z"/>
	<path class="st3" d="M116.34,1149.54h-1.59c0.22,0.62,0.51,1.18,0.89,1.69h0.4C116.09,1150.66,116.19,1150.1,116.34,1149.54z"/>
	<path class="st3" d="M114.3,1147.33c0.02,0.37,0.09,0.72,0.15,1.07c0.22-0.85,0.21-1.74,0.01-2.64c-0.03,0-0.06-0.01-0.09-0.01
		C114.31,1146.28,114.28,1146.81,114.3,1147.33z"/>
	<path class="st3" d="M115.89,1143.97c-0.37,0.07-0.75,0.09-1.14,0.1c-0.15,0.47-0.25,0.95-0.33,1.44c0.02,0.09,0.02,0.17,0.04,0.26
		c0.03,0,0.07,0.01,0.1,0.01c0.53,0,1.04-0.05,1.55-0.14c0.11-0.64,0.31-1.27,0.58-1.89
		C116.44,1143.82,116.18,1143.91,115.89,1143.97z"/>
	<path class="st3" d="M121.07,1137.34c0.1,0.04,0.2,0.04,0.3,0.07c-0.03-0.09-0.06-0.18-0.09-0.27c-0.11,0.04-0.22,0.09-0.33,0.13
		C120.99,1137.29,121.03,1137.33,121.07,1137.34z"/>
	<path class="st3" d="M120.01,1139.66c0.33-0.22,0.66-0.43,1-0.6c-0.17-0.04-0.35-0.08-0.52-0.14h0c-0.19-0.07-0.36-0.19-0.54-0.28
		C120.01,1138.99,120.03,1139.33,120.01,1139.66z"/>
	<path class="st12" d="M114.38,1145.75c0.03,0,0.06,0.01,0.09,0.01c-0.02-0.09-0.02-0.17-0.04-0.26
		C114.42,1145.58,114.39,1145.67,114.38,1145.75z"/>
	<path class="st3" d="M119.95,1138.64c-0.04-0.27-0.1-0.54-0.19-0.81c-0.2,0.11-0.39,0.24-0.58,0.36
		C119.42,1138.37,119.69,1138.51,119.95,1138.64z"/>
	<path class="st3" d="M121.37,1137.41c0.14,0.46,0.23,0.93,0.28,1.39c0.15-0.06,0.29-0.13,0.43-0.18c0.6-0.18,1.19-0.27,1.74-0.27
		c0.45,0,0.88,0.06,1.29,0.18c0.19-0.1,0.39-0.19,0.57-0.31c0.37-0.23,0.72-0.51,1.05-0.8c-0.59-0.32-1.22-0.56-1.9-0.66
		c-0.02,0.01-0.03,0.02-0.05,0.04C123.66,1137.51,122.46,1137.71,121.37,1137.41z"/>
	<path class="st3" d="M120.49,1138.93L120.49,1138.93c0.17,0.06,0.35,0.1,0.52,0.14c0.21-0.1,0.42-0.18,0.64-0.26
		c-0.05-0.47-0.14-0.93-0.28-1.39c-0.1-0.03-0.2-0.03-0.3-0.07c-0.04-0.02-0.08-0.05-0.12-0.07c-0.4,0.16-0.8,0.34-1.19,0.56
		c0.09,0.27,0.14,0.54,0.19,0.81C120.13,1138.74,120.3,1138.85,120.49,1138.93z"/>
	<path class="st3" d="M128.29,1138.6c-0.28-0.3-0.57-0.6-0.92-0.84c-0.19-0.14-0.41-0.22-0.61-0.33
		C127.19,1137.92,127.72,1138.29,128.29,1138.6z"/>
	<path class="st3" d="M116.42,1149.2c-0.03,0.11-0.05,0.23-0.08,0.34h0.2C116.49,1149.43,116.46,1149.31,116.42,1149.2z"/>
	<path class="st3" d="M129.76,1145.27c0.12-0.55,0.18-1.09,0.2-1.63c-0.13-0.15-0.29-0.27-0.44-0.4
		C129.51,1143.91,129.59,1144.59,129.76,1145.27z"/>
	<path class="st3" d="M116.54,1149.54h-0.2c-0.15,0.56-0.25,1.12-0.3,1.69h1.68c0.01-0.08,0-0.15,0.01-0.23
		C117.24,1150.61,116.83,1150.12,116.54,1149.54z"/>
	<path class="st3" d="M128.24,1142.38c0.28,0.14,0.56,0.26,0.82,0.44c0.18,0.12,0.31,0.29,0.47,0.43c0-0.11-0.02-0.22-0.01-0.33
		c0.03-0.51,0.13-0.97,0.27-1.41c-0.18-0.75-0.48-1.44-0.88-2.06c-0.39,0.62-0.69,1.31-0.86,2.08
		C128.13,1141.79,128.19,1142.08,128.24,1142.38z"/>
	<path class="st3" d="M128.26,1144.35c0.59,0.47,1.03,1.07,1.32,1.78c0.09-0.29,0.13-0.57,0.19-0.86c-0.17-0.68-0.25-1.36-0.24-2.03
		c-0.16-0.14-0.29-0.3-0.47-0.43c-0.26-0.18-0.54-0.3-0.82-0.44C128.33,1143,128.35,1143.66,128.26,1144.35z"/>
	<path class="st3" d="M116.59,1131.76c0.03-0.01,0.05-0.03,0.08-0.04c0.06-0.73,0.2-1.48,0.44-2.22c-0.25,0.16-0.47,0.32-0.72,0.47
		c-0.52,0.31-1.09,0.63-1.68,0.93c0.53,0.18,1.06,0.41,1.57,0.67C116.4,1131.63,116.49,1131.7,116.59,1131.76z"/>
	<path class="st3" d="M103.86,1129.6c2.12-0.64,4.8-1.31,8.18-1.99c2.95-0.59,5.34-1.23,7.3-1.9c1.89-1.96,4.45-2.84,6.74-2.01
		c0.09,0.03,0.16,0.09,0.25,0.13c1.26-1.42,3.82-4.54,3.29-5.75c-0.13-0.3-0.55-0.57-0.88-0.57c-0.88,0-1.3,0.63-1.69,1.25
		c-0.92,1.42-3.09,4.75-15.33,7.2c-3.89,0.78-6.9,1.56-9.26,2.32C102.97,1128.63,103.45,1129.07,103.86,1129.6z"/>
	<path class="st3" d="M94.18,1133.53c0,0.36,0.23,0.68,0.58,0.8c2.8,0.93,5.49,1.33,8.04,1.33c0.4,0,0.79-0.03,1.18-0.05
		c0-0.57-0.04-1.13-0.13-1.68c-2.36,0.11-4.89-0.13-7.53-0.88c0.66-0.62,2.22-1.66,5.79-2.89c-0.55-0.56-1.2-0.95-1.91-1.11
		C94.78,1131.13,94.18,1132.88,94.18,1133.53z"/>
	<path class="st3" d="M118.81,1129.67c-0.11,0.3-0.18,0.59-0.25,0.89c2.87-1.89,5.09-3.91,6.51-5.37c-0.96-0.22-1.96-0.05-2.91,0.45
		c-0.65,0.59-1.35,1.18-2.1,1.77C119.55,1128.05,119.12,1128.81,118.81,1129.67z"/>
	<path class="st3" d="M104.76,1133.87c-0.3,0.03-0.6,0.05-0.9,0.06c0.09,0.54,0.13,1.1,0.13,1.68c0.08,0,0.16-0.01,0.24-0.01
		C104.32,1135,104.49,1134.41,104.76,1133.87z"/>
	<path class="st3" d="M102.12,1130.16c0.54-0.18,1.11-0.37,1.74-0.56c-0.41-0.54-0.89-0.97-1.41-1.33
		c-0.83,0.26-1.57,0.52-2.24,0.78C100.92,1129.22,101.57,1129.6,102.12,1130.16z"/>
	<path class="st3" d="M114.77,1132.73c0.63-0.31,1.23-0.63,1.82-0.97c-0.11-0.06-0.2-0.13-0.3-0.19c-0.51-0.27-1.04-0.49-1.57-0.67
		c-0.78,0.4-1.61,0.79-2.5,1.15C113.07,1132.14,113.93,1132.38,114.77,1132.73z"/>
	<path class="st3" d="M106.28,1134.57c0.2-0.38,0.47-0.71,0.77-1.02c-0.5,0.09-1,0.17-1.51,0.23c0.08,0.55,0.13,1.11,0.13,1.68
		c0.1-0.01,0.2-0.03,0.3-0.04C106.05,1135.14,106.14,1134.85,106.28,1134.57z"/>
	<path class="st3" d="M105.67,1135.47c0-0.57-0.05-1.13-0.13-1.68c-0.26,0.03-0.52,0.06-0.78,0.08c-0.28,0.55-0.44,1.13-0.53,1.73
		C104.71,1135.57,105.19,1135.53,105.67,1135.47z"/>
	<path class="st3" d="M118.55,1130.56c0.07-0.3,0.14-0.59,0.25-0.89c0.31-0.85,0.75-1.62,1.26-2.27c-0.92,0.72-1.9,1.42-2.95,2.09
		c-0.24,0.75-0.38,1.49-0.44,2.22C117.33,1131.34,117.95,1130.95,118.55,1130.56z"/>
	<path class="st3" d="M119.35,1125.71c2.11-0.71,3.73-1.45,4.96-2.16c-0.63,0.67-1.37,1.38-2.14,2.09c0.95-0.5,1.95-0.67,2.91-0.45
		c0.34-0.34,0.65-0.67,0.89-0.94c0.1-0.11,0.24-0.26,0.37-0.42c-0.09-0.04-0.16-0.1-0.25-0.13
		C123.8,1122.87,121.24,1123.75,119.35,1125.71z"/>
	<path class="st3" d="M128.62,1149.54c-0.03,0.01-0.09,0.03-0.11,0.03l0.44,1.63c0.02,0,0.24-0.06,0.57-0.15
		c0.18-0.5,0.32-1.01,0.4-1.51H128.62z"/>
	<path class="st3" d="M132.16,1149.54c0.24,0.24,0.48,0.47,0.74,0.68c0.92-0.21,1.96-0.44,3.08-0.68H132.16z"/>
	<path class="st3" d="M148.96,1151.22h4c0.46-0.37,0.9-0.76,1.29-1.16c-0.18-0.17-0.35-0.35-0.52-0.53h-1.38
		C151.34,1150.43,150.12,1151.22,148.96,1151.22z"/>
	<path class="st3" d="M143.33,1148.22c0.53-0.08,1.07-0.15,1.6-0.22c-0.06-0.56-0.06-1.13,0-1.7c-0.5,0.06-1,0.13-1.51,0.2
		c0.02,0.33,0.05,0.66,0.03,0.99C143.43,1147.74,143.36,1147.97,143.33,1148.22z"/>
	<path class="st3" d="M155.32,1148.75c0.02,0.02,0.04,0.04,0.06,0.06c0.07-0.09,0.16-0.19,0.23-0.27c0.22-0.27,0.32-0.6,0.33-0.94
		c-0.07,0.16-0.12,0.32-0.2,0.47C155.62,1148.31,155.47,1148.52,155.32,1148.75z"/>
	<path class="st3" d="M154.25,1150.06c0.18-0.18,0.34-0.35,0.5-0.53h-1.02C153.9,1149.72,154.07,1149.9,154.25,1150.06z"/>
	<path class="st3" d="M155,1149.26c0.14-0.16,0.26-0.31,0.39-0.45c-0.02-0.02-0.04-0.04-0.06-0.06
		C155.22,1148.92,155.12,1149.1,155,1149.26z"/>
	<path class="st12" d="M129.92,1149.54h0.05c-0.01-0.02-0.03-0.03-0.04-0.05C129.93,1149.5,129.92,1149.52,129.92,1149.54z"/>
	<path class="st3" d="M131.64,1148.93c0-0.05,0-0.11,0.01-0.16c-0.04,0.01-0.07,0.02-0.11,0.03
		C131.57,1148.85,131.61,1148.89,131.64,1148.93z"/>
	<path class="st3" d="M129.98,1149.54h-0.05c-0.08,0.5-0.22,1-0.4,1.51c0.33-0.09,0.8-0.21,1.41-0.35
		C130.59,1150.33,130.28,1149.95,129.98,1149.54z"/>
	<path class="st3" d="M141.59,1148.49c0.56-0.09,1.11-0.18,1.67-0.26c-0.07-0.56-0.08-1.13-0.04-1.7c-0.49,0.07-0.98,0.15-1.47,0.22
		c0.01,0.21,0.03,0.42,0.02,0.63C141.74,1147.77,141.67,1148.13,141.59,1148.49z"/>
	<path class="st3" d="M131.62,1149.54c-0.04,0.34-0.14,0.69-0.22,1.04c0.45-0.11,0.95-0.23,1.5-0.36c-0.25-0.21-0.5-0.44-0.74-0.68
		H131.62z"/>
	<path class="st3" d="M143.26,1148.23c0.02,0,0.04-0.01,0.06-0.01c0.04-0.24,0.1-0.47,0.12-0.73c0.02-0.33-0.01-0.66-0.03-0.99
		c-0.07,0.01-0.13,0.02-0.2,0.03C143.18,1147.1,143.2,1147.67,143.26,1148.23z"/>
	<path class="st3" d="M131.54,1148.8c-0.62,0.15-1.14,0.28-1.58,0.39c-0.01,0.1-0.01,0.19-0.02,0.29c0.01,0.02,0.03,0.03,0.04,0.05
		h1.64c0.03-0.2,0.01-0.4,0.03-0.6C131.61,1148.89,131.57,1148.85,131.54,1148.8z"/>
	<path class="st3" d="M129.98,1149.54c0.3,0.41,0.61,0.8,0.96,1.15c0.15-0.04,0.3-0.07,0.47-0.11c0.08-0.35,0.17-0.69,0.22-1.04
		H129.98z"/>
	<path class="st4" d="M91.66,1183.25H71.43c-0.47,0-0.84-0.38-0.84-0.84s0.38-0.84,0.84-0.84h20.23c0.47,0,0.84,0.38,0.84,0.84
		S92.12,1183.25,91.66,1183.25z"/>
	<path class="st4" d="M109.35,1196.73H89.13c-0.47,0-0.84-0.38-0.84-0.84s0.38-0.84,0.84-0.84h20.23c0.47,0,0.84,0.38,0.84,0.84
		S109.82,1196.73,109.35,1196.73z"/>
	<path class="st4" d="M144.75,1196.73h-20.23c-0.47,0-0.84-0.38-0.84-0.84s0.38-0.84,0.84-0.84h20.23c0.47,0,0.84,0.38,0.84,0.84
		S145.21,1196.73,144.75,1196.73z"/>
	<path class="st4" d="M109.35,1227.07H89.13c-0.47,0-0.84-0.38-0.84-0.84s0.38-0.84,0.84-0.84h20.23c0.47,0,0.84,0.38,0.84,0.84
		S109.82,1227.07,109.35,1227.07z"/>
	<path class="st4" d="M144.75,1227.07h-20.23c-0.47,0-0.84-0.38-0.84-0.84s0.38-0.84,0.84-0.84h20.23c0.47,0,0.84,0.38,0.84,0.84
		S145.21,1227.07,144.75,1227.07z"/>
	<path class="st4" d="M127.89,1183.25h-20.23c-0.47,0-0.84-0.38-0.84-0.84s0.38-0.84,0.84-0.84h20.23c0.47,0,0.84,0.38,0.84,0.84
		S128.36,1183.25,127.89,1183.25z"/>
	<path class="st4" d="M163.29,1183.25h-20.23c-0.47,0-0.84-0.38-0.84-0.84s0.38-0.84,0.84-0.84h20.23c0.47,0,0.84,0.38,0.84,0.84
		S163.75,1183.25,163.29,1183.25z"/>
	<path class="st4" d="M91.66,1210.21H71.43c-0.47,0-0.84-0.38-0.84-0.84s0.38-0.84,0.84-0.84h20.23c0.47,0,0.84,0.38,0.84,0.84
		S92.12,1210.21,91.66,1210.21z"/>
	<path class="st4" d="M127.89,1210.21h-20.23c-0.47,0-0.84-0.38-0.84-0.84s0.38-0.84,0.84-0.84h20.23c0.47,0,0.84,0.38,0.84,0.84
		S128.36,1210.21,127.89,1210.21z"/>
	<path class="st4" d="M163.29,1210.21h-20.23c-0.47,0-0.84-0.38-0.84-0.84s0.38-0.84,0.84-0.84h20.23c0.47,0,0.84,0.38,0.84,0.84
		S163.75,1210.21,163.29,1210.21z"/>
	<line class="st13" x1="64.87" y1="1150.86" x2="177.17" y2="1150.86"/>
	<path class="st3" d="M126.11,1096.9c1.49-0.33,2.67-1.02,3.62-2.09c0.93-1.1,1.39-2.37,1.39-3.84c0-1.31-0.41-2.41-1.15-3.35
		c-0.81-0.99-2.05-1.69-3.85-2.22V1096.9z M121.85,1065.63c-1.14,0.41-2.05,1.11-2.74,2.05c-0.66,0.94-0.98,1.96-0.98,3.11
		c0,1.02,0.28,1.96,0.9,2.87c0.61,0.9,1.56,1.59,2.82,2.17V1065.63z M121.85,1096.4v-12.28c-3.8-1.07-6.63-2.74-8.38-4.95
		c-1.81-2.21-2.66-4.91-2.66-8.07c0-3.19,1.02-5.89,3.03-8.05c2.01-2.21,4.67-3.45,8.02-3.77v-2.9h4.25v2.9
		c3.16,0.38,5.62,1.43,7.46,3.15c1.84,1.76,3.08,4.14,3.56,7.04l-7.44,0.98c-0.49-2.29-1.65-3.89-3.57-4.71v11.46
		c4.72,1.26,7.95,2.9,9.66,4.95c1.72,2,2.54,4.58,2.54,7.78c0,3.52-1.05,6.51-3.23,8.92c-2.13,2.41-5.12,3.93-8.97,4.54v5.45h-4.25
		v-5.4c-3.35-0.42-6.09-1.65-8.23-3.74c-2.08-2.13-3.43-5.07-4.05-8.87l7.65-0.9c0.28,1.56,0.91,2.91,1.76,4.01
		C119.85,1095.1,120.8,1095.92,121.85,1096.4z"/>
	<g>
		<path class="st3" d="M211.91,1504.78c-0.36-0.04-2.33,1.06-2.69,1.01c-1.12-0.14-2.24-0.28-3.37-0.41
			c-0.18-0.02-0.35-0.05-0.53-0.07c-1.39-0.16-2.79-0.33-4.2-0.48c-0.14-0.02-0.29-0.04-0.44-0.05c-1.29-0.15-2.57-0.39-3.88-0.43
			c-94.93-2.72-164.28,0.43-164.28,0.43c13.76-12.31,57.87-20.34,57.87-20.34c4.46-9.81,18.44-39.93,14.28-70.42
			c-0.16,0.05-17.55-23.44-38.05-10.63c-2.91,1.82-5.84,5.41-8.66,7.31c7.2-14.76,17.94-16.09,27.94-16.64v-3.99
			c0-14.13,20.53-14.5,23.29-2.66c-4.06-2.72-9.21-7.36-14.8-2.82c-6.6,5.36,5.51,17.13,15.76,17.78
			c15.89,1.01,20.64-21.32,10.01-30.59c-16.26-14.19-27.91,8.56-43.82-0.76c-8.53-5.01-4.58-10.89-20.38-10.89l2.26-1.07
			c4.52-1.18,10.07,0.48,13.71,2.4c-1.83-7.86,0.18-16.64,9.98-16.64c-1.46,1.99-3.42,1.98-5.17,4.15c-4.4,5.48-1.4,18.48,6.5,18.48
			c5.26,0,10.21-2.08,13.97-3.99c5.61-2.85,18.03-6.84,24.51-0.79c0-8.65-3.97-10.34-7.89-17.83c-2.71-5.2-3.18-11.82-5.4-15.22
			c-8.57-13.15-17.65-6.49-22.53-6.09c0.43-0.37,0.8-0.72,1.46-1.2c1.11-0.8,0.32-0.26,1.21-0.79c0.68-0.4,1.91-1.03,2.64-1.34
			c7.94-3.35,13.03-0.34,19.97,3.33c3.1-6.45,8.06-17.05,8.78-18.56c-0.38-0.3-0.75-0.6-1.07-0.88c2.95-11.68,13.08-3.57,11,0.44
			c-2.65,5.14-6.96,2.76-9.87,0.49c-0.98,7.04-3.96,16.14-4.24,22.32c-0.44,9.76,5.79,21.71,10.04,22.81
			c4.23,1.09,14.25-4.53,17.33-10.62c0.64-1.26,0.8-1.78,1.37-3.28l1.26-2.74c0,10.26-3.99,15.31-15.41,23.84
			c3.32,7.99,8.28,14.74,8.76,25.4c21.59,0,41.46-24.16,23.45-37.42l-1.49-1.17c8.04,0.67,12.69,9.29,13.3,16.63
			c5.5-1.28,16.68-3.33,18.63,4c-7.02-3.72-16.92-2.39-20.64,5.3c-3.42,12.55-24.88,22.7-24.05,23.86
			c11.98,16.63,43.05,6.05,43.05,6.05c-21.75,13.5-43.19,6.05-51.69,4.03c-2.75-0.66-5.6,4.55-6.66,8.7
			c-5.21,20.51,7.88,59.57,18.37,71.65C198.74,1493.59,211.91,1504.78,211.91,1504.78z"/>
		<path class="st3" d="M205.85,1505.38c-0.18-0.02-0.35-0.04-0.53-0.06C205.5,1505.34,205.68,1505.36,205.85,1505.38z"/>
		<path class="st3" d="M201.13,1504.83c-0.15-0.02-0.3-0.03-0.44-0.05C200.83,1504.79,200.98,1504.81,201.13,1504.83z"/>
		<path class="st3" d="M64.61,1410.7c-1.19,4.46-3.99,4.96-3.99,12.64c0,5.77,2.54,11,5.99,13.31c3.37-5.03,4.66-5.21,4.66-12.64
			C71.27,1417.99,68.17,1413.08,64.61,1410.7z"/>
		<path class="st3" d="M208.69,1423.7c0.12-8.74-2.05-16.26-8.82-20.32c-5.61-3.36-5.52-2.94-5.58,2.16
			C194.17,1414.42,201.86,1422.01,208.69,1423.7z"/>
		<path class="st3" d="M227.36,1418.72c-1.12-4.81-3.5-8.3-6.83-11.13c-3.53-3-8.09-4.17-14.46-4.17
			C208.07,1411.99,216.78,1418.72,227.36,1418.72z"/>
		<path class="st3" d="M61.95,1392.73c10.19,2.37,18.51-1.86,23.95-9.98c-5.79-2.78-13.83-0.92-18.35,2.95
			C64.67,1388.17,62.71,1389.49,61.95,1392.73z"/>
		<path class="st3" d="M137.66,1323.97c-2.73-5.67-7.91-9.61-13.92-11.53c-0.64,2.25-0.25,4.09,0.44,6.2
			c2.65,8.14,6.74,10.48,14.68,15.22C140.41,1330.68,138.93,1326.62,137.66,1323.97z"/>
		<path class="st3" d="M50.03,1401.91c-12.84-8.6-21.1-2.4-25.95-2c1.11,4.14,8.53,6.65,11.98,6.65
			C40.92,1406.57,47.25,1406.05,50.03,1401.91z"/>
		<path class="st3" d="M37.33,1380.09c4.38-0.1,10.58-3.31,13.14-5.5c3.16-2.71,5.8-7.48,6.16-11.8
			C47.58,1362.99,37.33,1371.1,37.33,1380.09z"/>
		<path class="st3" d="M228.72,1393.15c-9.39-6.55-23.19-1.82-25.47,3.27C209.96,1401.1,226.07,1399.05,228.72,1393.15z"/>
		<path class="st3" d="M36.77,1386.14c1.31,2.47,1.71,3.45,3.63,5.69c0.96,1.12,0.28,0.37,1.28,1.38c0.79,0.8,0.32,0.36,1.02,0.98
			c4.93,4.34,9.81,4.59,17.36,4.59C55.07,1389.36,49.99,1386.14,36.77,1386.14z"/>
		<path class="st3" d="M59.29,1362.79c-0.95,3.55-3.99,5.42-3.99,10.65c0,12.32,2.33,9.09,3.99,15.3h1.33
			c0.61-2.63,1.61-3.29,2.39-6.26l0.94-7.71c0-6.02-2.36-7.83-3.33-11.98H59.29z"/>
		<path class="st3" d="M103.87,1311.56c-1.24-5.34-2.2-12.09-6.71-16.58c-0.1-0.1-0.25-0.23-0.34-0.32l-2.32-2.33
			c-1.51-1.44-3.34-3.17-5.93-3.39c0,6.94,1.79,10.68,4.64,14.66C95.04,1306.16,100.07,1311.24,103.87,1311.56z"/>
		<path class="st3" d="M208.84,1381.06c0.16-0.57,0.83-3.7,0.36-4.17c-0.15-0.15-8.1-0.07-8.1,12.18
			C204.49,1388.79,207.83,1384.63,208.84,1381.06z"/>
		<path class="st3" d="M43.49,1341.99c2.4,0.87,4.24,1.5,7.15,1.5c-0.64-7.74-11.58-16.45-19.96-16.63
			C32.22,1330.07,33.37,1338.34,43.49,1341.99z"/>
		<path class="st3" d="M189.34,1395.41c-1.56-3.69-1.44-6.44-3.43-10.86c-1.22-2.71-7.48-10.72-11.81-10.01
			c0.54,2.72,0.15,4.15,1.2,7.54c0.92,2.98,1.04,3.46,3.06,6.39C180.42,1391.45,185.46,1396.04,189.34,1395.41z"/>
		<path class="st3" d="M75.92,1341.5c4.57-0.38,9.59-3.77,12.17-6.46c2.36-2.47,6.37-7.84,6.46-12.17
			C89.78,1325.16,77.09,1327.55,75.92,1341.5z"/>
		<path class="st3" d="M21.46,1378.21c6.06-1.04,16.05-4.94,16.53-10.76c-14.59,0-17.09,2.08-23.95,9.98v1.33
			C15.53,1378.07,19.14,1378.61,21.46,1378.21z"/>
		<path class="st3" d="M47.69,1416.2c1.48-2.71,2.3-3.06,2.3-7.01c-2.22,1.07-10.34,1.04-16.19,11.76
			c-0.95,1.74-2.69,4.62-3.11,6.21C38.39,1425.35,43.6,1423.67,47.69,1416.2z"/>
		<path class="st3" d="M62.17,1343.99c-0.05-2.34-0.89-4.59-1.58-6.26c-1.03-2.53-1.33-2.76-2.99-4.73c-2.66-3.16-5-4.46-9.13-5.5
			C48.62,1335.22,56.2,1342.49,62.17,1343.99z"/>
		<path class="st3" d="M85.91,1419.35c-0.88-10.61-6.78-13.97-16.63-13.97C69.27,1414.89,77.1,1419.35,85.91,1419.35z"/>
		<path class="st3" d="M76.27,1317.53c-1.76-7.54-12.58-14.64-21.29-14.64C56.84,1310.89,66.22,1317.53,76.27,1317.53z"/>
		<path class="st3" d="M123.44,1378.22c-3.82-2.71-9.67-2.08-13.38,0.15c-1.48,0.89-2.79,2.22-3.99,2.76
			C111.43,1385.44,118.68,1383.89,123.44,1378.22z"/>
		<path class="st3" d="M71.78,1328.33c0-2.78-1.34-4.54-2-7c-3.07,1.8-5.99,8.8-5.99,13.42c0,5.82-0.1,3.94,1.33,9.33
			c1.94-0.62,3.84-3.07,4.68-4.65C72.16,1334.97,71.78,1333.04,71.78,1328.33z"/>
		<path class="st3" d="M83.03,1344.19c10.57,3.16,18.88,1.28,26.12-6.08C99.75,1335.3,90.15,1338.31,83.03,1344.19z"/>
		<path class="st3" d="M165.75,1330.19c0.69-2.59,5.99-8.22,5.99-17.96c0-2.17-0.89-6.07-1.33-7.98c-2.92,1.95-5.49,7.08-6.38,11.59
			c-1.57,7.93,0.26,8.45,0.39,14.36H165.75z"/>
		<path class="st3" d="M194.36,1358.8c-3.61-6.82-11.6-13.97-21.96-13.97C174.1,1352.1,184.87,1358.8,194.36,1358.8z"/>
		<path class="st3" d="M155.18,1311.24c-1.29-1.93-3.39-2.63-5.89-3.42c-6.29-1.99-14.43-1.55-20.06,1.43
			c1.75,2.4,7.61,4.66,11.98,4.66C150.58,1313.9,149.02,1312.68,155.18,1311.24z"/>
		<path class="st3" d="M150.7,1344.42c-5.73,3.43-9.97,9.52-11.57,16.38c8.4-1.96,16.66-10.82,18.63-19.3
			C155.29,1342.69,153.32,1342.85,150.7,1344.42z"/>
		<path class="st3" d="M182.69,1329.82c-2.88,1.26-3.35,1.29-4.96,3.69c2.51,0.59,4.16,1.33,7.32,1.33c7.15,0,15.21-1.99,18.63-6.65
			C195.07,1326.19,190.94,1326.22,182.69,1329.82z"/>
		<path class="st3" d="M138.58,1287.72c0.29-0.51,1.31-2.51,1.57-3.09c0.36-0.8,6.22-17.42-3.19-7.18
			c-4.25,4.62-7.81,12.08-7.81,18.81C132.95,1295.24,136.75,1290.96,138.58,1287.72z"/>
		<path class="st3" d="M38,1346.15v1.67c2.02,0.92,1.45,2.1,4.73,4.45c6.39,4.58,10.45,1.12,14.33,0.57
			c-1.37-3.51-5.75-6.47-8.44-7.31C43.21,1343.84,42.78,1345.47,38,1346.15z"/>
		<path class="st3" d="M163.71,1336.74c0-8.25-4.56-21.48-11.31-23.29c0,6.66,0.45,10.32,2.69,14.61
			C156.52,1330.81,160.52,1335.88,163.71,1336.74z"/>
		<path class="st3" d="M99.21,1314.88c-2.31-3.44-6.58-5.64-10.65-7.31c-5.46-2.25-8.37-1.8-13.97-1.33
			c1.77,2.65,4.94,5.26,7.97,6.66C89.27,1316,92.43,1315.91,99.21,1314.88z"/>
		<path class="st3" d="M68.68,1296.84c1.92,1.42,2.96,2.12,5.51,3.14c4.72,1.89,8.01,2.26,14.37,2.26c-0.96-3.6-6.04-6.54-9.31-7.99
			c-4.84-2.16-7.78-1.99-14.65-1.99C65.28,1294.78,66.8,1295.44,68.68,1296.84z"/>
		<path class="st3" d="M134.17,1300.49c12.57,0,17.61-5.82,22.62-13.31C147.11,1287.18,135.64,1294.96,134.17,1300.49z"/>
		<path class="st3" d="M119.17,1323.53c0,12.19,4.73,18.43,11.98,23.29c0-6.39-1.06-10.39-3.46-14.51
			C126.01,1329.41,122.47,1324.41,119.17,1323.53z"/>
		<path class="st3" d="M206.42,1374.01c4.96,1.79,8.1,1.42,14.55,1.42v-0.67C208.34,1361.45,183.07,1365.6,206.42,1374.01z"/>
		<path class="st3" d="M87.24,1350.15c6.91,10.32,19.83,6.65,25.28,6.65v-1.33c-2.48-0.66-4.45-2.8-7.4-3.92
			C95.33,1347.86,93.93,1350.15,87.24,1350.15z"/>
		<path class="st3" d="M52.64,1357.47c-8.48-0.89-20.81-1.03-25.95,5.99c2.83,0.66,5.1,1.33,8.65,1.33
			C42.24,1364.79,49.85,1361.27,52.64,1357.47z"/>
		<path class="st3" d="M201.68,1344.16c-2.08-3.11-7.98-4.92-12.13-5.89c-3.78-0.89-8.17-0.59-13.15,0.57
			c0.56,1.55,1.49,2.14,2.93,3.06C188.98,1348.09,195.45,1344.68,201.68,1344.16z"/>
		<path class="st3" d="M193.69,1363.46c6.34,0,11.04,0.03,15.32-1.98c3.13-1.47,7.46-4.6,9.3-7.34c-4.3-0.1-3.14-0.88-7.99-0.03
			C205.33,1354.99,194.97,1358.7,193.69,1363.46z"/>
		<path class="st3" d="M107.91,1314.83c0.93,2.78,0.26,2.47,2.61,4.04c0.5-2.14,1.45-3.58,2.11-5.88
			c2.28-8.02,0.27-12.05-1.44-19.41C106.48,1294.85,105.35,1307.14,107.91,1314.83z"/>
		<path class="st3" d="M165.08,1342.83c3.47-1.84,6.59-4.5,9.23-7.41c2.67-2.94,6.08-8.9,6.08-13.88c-1.33,0.64-1.8,0.65-3.2,1.46
			c-3.42,1.98-5.21,3.45-7.25,6.72C167.48,1333.66,165.2,1337.54,165.08,1342.83z"/>
		<path class="st3" d="M163.09,1370.77c0.06-2.54,0.72-4.07,0.93-6.98c0.74-10.17-4.19-15.12-4.93-18.3h-1.33
			c-4.16,17.85,2.33,19.08,3.99,25.28H163.09z"/>
		<path class="st3" d="M144.46,1378.09c2.96-0.25,1.36,0.22,3-1.65c5.61-6.37,6.98-13.18,6.98-22.3
			C147.16,1359.02,144.46,1365.93,144.46,1378.09z"/>
		<path class="st3" d="M163.93,1417.05c-0.98,1.89-1.32,4.18-2.26,5.91c5.09,0.13,11.3-3.48,14.23-6.72
			c1.62-1.79,2.86-4.06,3.09-7.1C172.22,1408.81,166.49,1412.12,163.93,1417.05z"/>
		<path class="st3" d="M198.73,1376.33c-0.13-4.5-2.55-5.75-4.55-9.92c-5.93,6.2-4.84,13.28,0.13,19.62
			C197.82,1384.21,198.86,1380.66,198.73,1376.33z"/>
		<path class="st3" d="M182.82,1416.97c-0.14,0.3-0.97,2.63-1.01,2.89c-0.73,4.11,0.55,8.9,3.84,13.5
			c10.92-9.25,6.07-18.25,3.49-24.53C185.59,1411.37,184.77,1412.86,182.82,1416.97z"/>
		<path class="st3" d="M108.71,1388.81c0.31,3.69,5.42,7.5,9.64,7.5c1.94,0,1.28-0.48,3.75-0.54
			C120.07,1387.05,111.86,1388.74,108.71,1388.81z"/>
		<path class="st3" d="M183.71,1314.22c0-8.27-9.32-7.77-9.32,0C174.4,1321.3,183.71,1319.7,183.71,1314.22z"/>
		<path class="st3" d="M122.44,1294c0-5.62-9.31-5.65-9.31,1.33C113.12,1303.65,122.44,1301.18,122.44,1294z"/>
		<path class="st3" d="M195.24,1398.94c3.41,0,4.98-2.03,5.4-5.2c0.42-3.18-1.04-6.12-4.69-6.12
			C188.6,1387.61,190.42,1398.94,195.24,1398.94z"/>
		<path class="st3" d="M37.33,1348.15c-5.96-2.95-9.98,0.24-9.98,4.66C27.35,1357.23,39.95,1359.1,37.33,1348.15z"/>
		<path class="st3" d="M78.65,1318.45c-6.05-0.39-5.92,10.21,0.21,10.61c2.41,0.16,4.55-2.03,4.55-4.97
			C83.42,1321.51,81.37,1318.62,78.65,1318.45z"/>
		<path class="st3" d="M49.29,1405.47c0,2.52,1.65,4.16,4.16,4.16c1.88,0,3.64,0.34,3.64-3.12
			C57.09,1401.84,49.29,1400.24,49.29,1405.47z"/>
		<path class="st3" d="M77.26,1351.48c-2.68,11.5,9.32,10.93,9.32,5.32C86.57,1350.82,81.43,1350.51,77.26,1351.48z"/>
		<path class="st3" d="M102.54,1394.73c2.56,0,4.66-0.98,4.66-3.99c0-2.01-2.71-5.32-4.66-5.32
			C92.26,1385.41,97.23,1394.73,102.54,1394.73z"/>
		<path class="st3" d="M75.26,1373.44c0-3.88-11.71-7.14-8.65,5.99C72.42,1382.21,75.26,1377.69,75.26,1373.44z"/>
		<path class="st3" d="M189.04,1324.2c3.07,0,5.99-1.68,5.99-4.66c0-5.75-10.65-6.17-10.65,0.67
			C184.38,1322.09,187.15,1324.2,189.04,1324.2z"/>
		<path class="st3" d="M181.72,1369.44c0,9,8.65,7.32,8.65,0C190.37,1363.05,181.72,1363.05,181.72,1369.44z"/>
		<path class="st3" d="M60.84,1351.48c0,7.85,9.32,4.7,9.32-1.33C70.16,1343.97,60.84,1344.66,60.84,1351.48z"/>
		<path class="st3" d="M52.62,1422.03c3.21,3.41,7.34-0.49,7.34-2.68C59.96,1405.59,46.85,1415.9,52.62,1422.03z"/>
		<path class="st3" d="M172.49,1388.11c-4.44-0.72-7.34,0.92-12.38,3.37c1.48,3.9,5.78,8.78,10.68,7.92
			c5.4-0.95,3.65-0.52,8.86-3.06C179.4,1392.55,175.57,1388.61,172.49,1388.11z"/>
		<path class="st3" d="M107.77,1287.48c0-5.61-9.31-5.65-9.31,1.33C98.45,1297.13,107.77,1294.66,107.77,1287.48z"/>
		<path class="st3" d="M148.18,1323.33c-1.47-3.59-13.54-2.16-5.73,8.82C148.89,1332.53,149.8,1327.26,148.18,1323.33z"/>
		<path class="st3" d="M146.91,1337.34c4.58,4.54,8.74,1.2,10.14-2.82C158.32,1330.85,148.33,1323.93,146.91,1337.34z"/>
		<path class="st3" d="M163.93,1340.72c0-4.39-4.95-4.13-4.95,0C158.98,1344.48,163.93,1343.63,163.93,1340.72z"/>
		<path class="st3" d="M200.68,1504.78c-1.29-0.14-2.58-0.29-3.88-0.42C198.1,1504.49,199.39,1504.63,200.68,1504.78z"/>
		<path class="st3" d="M209.23,1505.79c-1.12-0.14-2.24-0.28-3.37-0.42C206.97,1505.51,208.1,1505.65,209.23,1505.79z"/>
		<path class="st3" d="M205.32,1505.31c-1.39-0.17-2.79-0.33-4.2-0.49C202.52,1504.98,203.92,1505.15,205.32,1505.31z"/>
	</g>
	<g>
		<g>
			<path class="st5" d="M130.56,95.15c-18.28,0-33.15-14.88-33.15-33.16c0-18.27,14.87-33.14,33.15-33.14
				c18.28,0,33.15,14.87,33.15,33.14C163.71,80.27,148.84,95.15,130.56,95.15z M130.56,31.46c-16.84,0-30.54,13.7-30.54,30.53
				c0,16.85,13.7,30.55,30.54,30.55c16.84,0,30.54-13.71,30.54-30.55C161.1,45.15,147.4,31.46,130.56,31.46z"/>
		</g>
		<g>
			<path class="st5" d="M130.56,95.15c-9.87,0-17.6-14.57-17.6-33.16c0-18.58,7.73-33.14,17.6-33.14c9.87,0,17.61,14.56,17.61,33.14
				C148.17,80.58,140.43,95.15,130.56,95.15z M130.56,31.46c-8.13,0-14.99,13.98-14.99,30.53c0,16.56,6.87,30.55,14.99,30.55
				c8.13,0,15-13.99,15-30.55C145.56,45.44,138.69,31.46,130.56,31.46z"/>
		</g>
		<g>
			<path class="st14" d="M162.4,63.29H98.71c-0.72,0-1.3-0.58-1.3-1.3c0-0.72,0.58-1.3,1.3-1.3h63.69c0.72,0,1.3,0.58,1.3,1.3
				C163.71,62.71,163.13,63.29,162.4,63.29z"/>
		</g>
		<g>
			<path class="st3" d="M130.56,95.15c-0.72,0-1.3-0.58-1.3-1.3V30.15c0-0.72,0.58-1.3,1.3-1.3c0.72,0,1.3,0.58,1.3,1.3v63.69
				C131.86,94.57,131.28,95.15,130.56,95.15z"/>
		</g>
		<g>
			<path class="st5" d="M130.64,48.97c-8.76,0-17.55-1.47-26.31-4.41c-0.68-0.23-1.05-0.97-0.82-1.65c0.23-0.68,0.96-1.05,1.65-0.82
				c16.96,5.69,34.05,5.69,50.79,0c0.68-0.23,1.42,0.14,1.65,0.81c0.23,0.68-0.13,1.42-0.82,1.65
				C148.14,47.5,139.4,48.97,130.64,48.97z"/>
		</g>
		<g>
			<path class="st5" d="M156.37,79.29c-0.14,0-0.28-0.02-0.42-0.07c-16.75-5.68-33.84-5.68-50.79,0c-0.7,0.23-1.42-0.14-1.65-0.82
				c-0.23-0.68,0.14-1.42,0.82-1.65c17.52-5.87,35.17-5.87,52.46,0c0.68,0.23,1.05,0.97,0.82,1.65
				C157.42,78.95,156.92,79.29,156.37,79.29z"/>
		</g>
		<path class="st15" d="M104.2,61.99c0,3.03-2.46,5.49-5.49,5.49c-3.03,0-5.49-2.46-5.49-5.49c0-3.03,2.46-5.49,5.49-5.49
			C101.74,56.5,104.2,58.96,104.2,61.99z"/>
		<path class="st15" d="M136.07,48.06c0,3.03-2.46,5.49-5.49,5.49c-3.03,0-5.49-2.46-5.49-5.49s2.46-5.49,5.49-5.49
			C133.61,42.57,136.07,45.02,136.07,48.06z"/>
		<path class="st15" d="M150.59,75.82c0,3.03-2.46,5.49-5.49,5.49c-3.03,0-5.49-2.46-5.49-5.49s2.46-5.49,5.49-5.49
			C148.14,70.33,150.59,72.79,150.59,75.82z"/>
		<g>
			<path class="st3" d="M176.22,65.29c-0.02,0-0.05,0-0.07,0c-1.1-0.04-1.97-0.96-1.93-2.07c0.02-0.54,0.03-1.08,0.03-1.62
				c0-24.26-19.74-44-44-44c-5.53,0-10.92,1.01-16.02,3.01c-1.03,0.4-2.19-0.11-2.59-1.13c-0.4-1.03,0.11-2.19,1.13-2.59
				c5.57-2.18,11.45-3.28,17.48-3.28c26.47,0,48,21.53,48,48c0,0.59-0.01,1.18-0.03,1.76C178.18,64.44,177.29,65.29,176.22,65.29z"
				/>
			<path class="st3" d="M130.25,109.6c-9.01,0-17.79-2.51-25.39-7.26c-0.94-0.58-1.22-1.82-0.64-2.76c0.58-0.94,1.82-1.22,2.76-0.64
				c6.97,4.35,15.01,6.65,23.27,6.65c20.17,0,37.7-13.63,42.65-33.15c0.27-1.07,1.36-1.72,2.43-1.45c1.07,0.27,1.72,1.36,1.45,2.43
				C171.38,94.73,152.24,109.6,130.25,109.6z"/>
			<path class="st3" d="M99.18,97.52c-0.48,0-0.97-0.17-1.35-0.53c-9.9-9.07-15.58-21.98-15.58-35.4c0-15.43,7.49-30.02,20.05-39.03
				c0.9-0.65,2.15-0.44,2.79,0.46c0.64,0.9,0.44,2.15-0.46,2.79C93.12,34.08,86.25,47.45,86.25,61.6c0,12.31,5.21,24.13,14.29,32.45
				c0.81,0.75,0.87,2.01,0.12,2.83C100.26,97.31,99.72,97.52,99.18,97.52z"/>
			<path class="st3" d="M99.75,83.82c-1.11,0.01-1.99,0.92-1.98,2.02l0.09,8.2l-8.18-0.57c-1.1-0.08-2.06,0.75-2.13,1.86
				c-0.08,1.1,0.75,2.06,1.86,2.13l9.97,0.69c0.17,0.04,0.34,0.07,0.52,0.07c0.52-0.01,1-0.21,1.35-0.54
				c0.01-0.01,0.01-0.02,0.02-0.02c0.01-0.01,0.02-0.01,0.02-0.02c0.35-0.33,0.59-0.79,0.62-1.32c0.01-0.18-0.01-0.36-0.04-0.53
				l-0.1-10C101.76,84.69,100.85,83.81,99.75,83.82z"/>
			<path class="st3" d="M164.98,77.87c0.64,0.9,1.89,1.11,2.79,0.47l6.68-4.75l4.2,7.04c0.57,0.95,1.79,1.26,2.74,0.69
				c0.95-0.57,1.26-1.79,0.69-2.74L176.96,70c-0.06-0.16-0.13-0.32-0.24-0.47c-0.3-0.43-0.74-0.7-1.22-0.8c-0.01,0-0.02,0-0.03,0
				c-0.01,0-0.02-0.01-0.03-0.01c-0.47-0.1-0.99-0.03-1.44,0.24c-0.16,0.09-0.29,0.21-0.41,0.33l-8.15,5.79
				C164.55,75.73,164.34,76.97,164.98,77.87z"/>
			<path class="st3" d="M121.65,25.05c0.5-0.99,0.11-2.19-0.88-2.69l-7.31-3.71l4.28-6.99c0.58-0.94,0.28-2.17-0.66-2.75
				c-0.94-0.58-2.17-0.28-2.75,0.66l-5.22,8.53c-0.12,0.13-0.22,0.27-0.31,0.43c-0.24,0.47-0.27,0.98-0.14,1.45
				c0,0.01,0.01,0.02,0.01,0.03c0,0.01,0,0.02,0.01,0.03c0.13,0.47,0.43,0.89,0.88,1.16c0.16,0.1,0.32,0.16,0.49,0.21l8.92,4.52
				C119.95,26.43,121.15,26.03,121.65,25.05z"/>
		</g>
	</g>
	<rect x="65.21" y="1149.18" class="st3" width="9.4" height="2.45"/>
</g>
<path class="st16" d="M189.34,1310.21v-32.28c0-6.87,5.57-12.44,12.44-12.44h2.34c6.55,0,11.87-5.31,11.87-11.86v-210.26V556.47
	v-7.28v-52.93V252.96V89c0-13.09-10.61-23.71-23.71-23.71h-6.33"/>
<path class="st16" d="M215.98,1202.43h-9.15c-6.89,0-12.48,5.59-12.48,12.48v16.46c0,6.01-4.87,10.87-10.87,10.87H161.9"/>
<circle class="st6" cx="161.9" cy="1242.24" r="2.23"/>
<circle class="st6" cx="173.12" cy="998.27" r="2.23"/>
<circle class="st6" cx="169.47" cy="841.4" r="2.23"/>
<circle class="st6" cx="101.02" cy="805.02" r="2.23"/>
<circle class="st6" cx="158.08" cy="533.87" r="2.23"/>
<circle class="st6" cx="132.6" cy="233.18" r="2.23"/>
<circle class="st6" cx="185.95" cy="65.29" r="2.23"/>
<circle class="st6" cx="189.34" cy="1310.21" r="2.23"/>
<path class="st16" d="M215.98,1091.15h-24.35c-10.23,0-18.53-8.3-18.53-18.53v-74.45"/>
<path class="st16" d="M215.98,868.6h-59.35c-9.73,0-17.62-7.89-17.62-17.62v-30.83c0-8.35-6.77-15.13-15.13-15.13h-21.68"/>
<line class="st16" x1="169.47" y1="841.4" x2="169.47" y2="868.6"/>
<path class="st16" d="M215.98,556.09h-43.88c-7.74,0-14.02-6.28-14.02-14.02v-8.19"/>
<path class="st16" d="M215.99,246.83h-75.1c-4.58,0-8.29-3.71-8.29-8.29v-6.27"/>
</svg>
